<svg width="667" height="667" viewBox="0 0 667 667" fill="none" xmlns="http://www.w3.org/2000/svg">
<g clip-path="url(#clip0_1_100)">
<mask id="mask0_1_100" style="mask-type:luminance" maskUnits="userSpaceOnUse" x="0" y="0" width="667" height="667">
<path d="M0 666.667H666.667V6.00815e-05H0V666.667Z" fill="white"/>
</mask>
<g mask="url(#mask0_1_100)">
<path d="M0 666.667H666.667V6.00815e-05H0V666.667Z" fill="url(#paint0_radial_1_100)"/>
</g>
<path d="M218.963 502.389V511.706H181.003V457.037H218.27V466.354H191.628V479.52H214.651V488.144H191.628V502.389H218.963ZM232.945 457.037L246.497 477.21L259.971 457.037H271.521L252.579 484.756L270.905 511.706H259.355L246.497 492.302L233.561 511.706H221.934L240.26 484.756L221.318 457.037H232.945ZM277.025 511.706V457.037H300.202C302.717 457.037 305.027 457.55 307.132 458.577C309.236 459.603 311.059 460.989 312.599 462.735C314.19 464.48 315.422 466.431 316.295 468.586C317.167 470.742 317.604 472.95 317.604 475.208C317.604 478.288 316.885 481.214 315.448 483.986C314.01 486.758 312.034 489.017 309.519 490.762C307.003 492.507 304.026 493.38 300.587 493.38H287.651V511.706H277.025ZM287.651 484.063H299.971C301.254 484.063 302.409 483.704 303.436 482.985C304.463 482.267 305.284 481.24 305.9 479.905C306.516 478.519 306.824 476.954 306.824 475.208C306.824 473.309 306.464 471.692 305.746 470.357C305.078 469.023 304.18 468.022 303.051 467.355C301.973 466.687 300.792 466.354 299.509 466.354H287.651V484.063ZM324.999 511.706V457.037H349.177C351.692 457.037 354.002 457.55 356.107 458.577C358.263 459.603 360.11 460.989 361.65 462.735C363.242 464.48 364.448 466.431 365.269 468.586C366.142 470.742 366.578 472.95 366.578 475.208C366.578 477.518 366.168 479.751 365.346 481.907C364.576 484.012 363.447 485.86 361.958 487.451C360.47 489.042 358.724 490.274 356.723 491.147L369.196 511.706H357.493L346.251 493.38H335.625V511.706H324.999ZM335.625 484.063H348.946C350.28 484.063 351.461 483.678 352.488 482.908C353.514 482.087 354.336 481.009 354.952 479.674C355.568 478.34 355.876 476.851 355.876 475.208C355.876 473.463 355.516 471.949 354.798 470.665C354.079 469.331 353.155 468.278 352.026 467.509C350.948 466.739 349.767 466.354 348.484 466.354H335.625V484.063ZM414.167 502.389V511.706H376.206V457.037H413.474V466.354H386.832V479.52H409.855V488.144H386.832V502.389H414.167ZM455.021 471.358C454.662 470.999 453.994 470.511 453.019 469.895C452.095 469.279 450.94 468.689 449.554 468.124C448.219 467.56 446.756 467.072 445.165 466.662C443.574 466.2 441.957 465.969 440.314 465.969C437.44 465.969 435.258 466.508 433.769 467.585C432.332 468.663 431.613 470.178 431.613 472.128C431.613 473.617 432.075 474.798 432.999 475.67C433.923 476.543 435.309 477.287 437.157 477.903C439.005 478.519 441.315 479.187 444.087 479.905C447.68 480.778 450.786 481.856 453.404 483.139C456.073 484.371 458.101 486.014 459.487 488.067C460.924 490.069 461.643 492.738 461.643 496.075C461.643 499.001 461.104 501.516 460.026 503.621C458.948 505.674 457.459 507.342 455.56 508.626C453.661 509.909 451.505 510.859 449.092 511.475C446.679 512.039 444.113 512.322 441.392 512.322C438.672 512.322 435.951 512.039 433.23 511.475C430.51 510.91 427.892 510.114 425.376 509.088C422.861 508.01 420.551 506.726 418.447 505.238L423.144 496.075C423.606 496.537 424.427 497.153 425.607 497.923C426.788 498.642 428.225 499.386 429.919 500.156C431.613 500.875 433.461 501.491 435.463 502.004C437.465 502.517 439.493 502.774 441.546 502.774C444.421 502.774 446.602 502.286 448.091 501.311C449.58 500.336 450.324 498.95 450.324 497.153C450.324 495.51 449.734 494.227 448.553 493.303C447.372 492.379 445.73 491.583 443.625 490.916C441.521 490.197 439.031 489.427 436.156 488.606C432.717 487.631 429.842 486.553 427.532 485.372C425.222 484.14 423.503 482.6 422.374 480.752C421.244 478.904 420.68 476.594 420.68 473.822C420.68 470.075 421.552 466.944 423.298 464.429C425.094 461.862 427.507 459.937 430.535 458.654C433.564 457.319 436.926 456.652 440.622 456.652C443.189 456.652 445.601 456.934 447.86 457.499C450.17 458.063 452.326 458.808 454.328 459.732C456.33 460.656 458.127 461.657 459.718 462.735L455.021 471.358ZM502.243 471.358C501.883 470.999 501.216 470.511 500.241 469.895C499.317 469.279 498.162 468.689 496.776 468.124C495.441 467.56 493.978 467.072 492.387 466.662C490.796 466.2 489.179 465.969 487.536 465.969C484.661 465.969 482.48 466.508 480.991 467.585C479.554 468.663 478.835 470.178 478.835 472.128C478.835 473.617 479.297 474.798 480.221 475.67C481.145 476.543 482.531 477.287 484.379 477.903C486.227 478.519 488.537 479.187 491.309 479.905C494.902 480.778 498.008 481.856 500.626 483.139C503.295 484.371 505.323 486.014 506.709 488.067C508.146 490.069 508.865 492.738 508.865 496.075C508.865 499.001 508.326 501.516 507.248 503.621C506.17 505.674 504.681 507.342 502.782 508.626C500.882 509.909 498.727 510.859 496.314 511.475C493.901 512.039 491.335 512.322 488.614 512.322C485.893 512.322 483.173 512.039 480.452 511.475C477.732 510.91 475.114 510.114 472.598 509.088C470.083 508.01 467.773 506.726 465.668 505.238L470.365 496.075C470.827 496.537 471.649 497.153 472.829 497.923C474.01 498.642 475.447 499.386 477.141 500.156C478.835 500.875 480.683 501.491 482.685 502.004C484.687 502.517 486.715 502.774 488.768 502.774C491.643 502.774 493.824 502.286 495.313 501.311C496.802 500.336 497.546 498.95 497.546 497.153C497.546 495.51 496.956 494.227 495.775 493.303C494.594 492.379 492.952 491.583 490.847 490.916C488.742 490.197 486.253 489.427 483.378 488.606C479.939 487.631 477.064 486.553 474.754 485.372C472.444 484.14 470.725 482.6 469.595 480.752C468.466 478.904 467.901 476.594 467.901 473.822C467.901 470.075 468.774 466.944 470.519 464.429C472.316 461.862 474.729 459.937 477.757 458.654C480.786 457.319 484.148 456.652 487.844 456.652C490.411 456.652 492.823 456.934 495.082 457.499C497.392 458.063 499.548 458.808 501.55 459.732C503.552 460.656 505.348 461.657 506.94 462.735L502.243 471.358Z" fill="#4F4F4F"/>
<path d="M327.231 524.955H333.978C335.718 524.955 337.146 525.316 338.26 526.04C339.375 526.744 340.206 527.702 340.754 528.915C341.301 530.107 341.575 531.447 341.575 532.933C341.575 534.771 341.272 536.473 340.666 538.037C340.059 539.602 339.218 540.971 338.143 542.144C337.067 543.298 335.796 544.197 334.33 544.843C332.863 545.468 331.269 545.781 329.548 545.781H322.802L327.231 524.955ZM329.93 543.963C331.396 543.963 332.716 543.669 333.89 543.083C335.082 542.496 336.09 541.704 336.911 540.707C337.732 539.709 338.358 538.575 338.788 537.304C339.238 536.013 339.463 534.664 339.463 533.256C339.463 531.985 339.238 530.87 338.788 529.912C338.358 528.934 337.703 528.171 336.823 527.624C335.962 527.057 334.877 526.773 333.567 526.773H328.874L325.207 543.963H329.93ZM347.484 524.955H360.537L360.156 526.773H349.126L347.513 534.283H357.134L356.782 536.013H347.161L345.46 543.963H356.753L356.372 545.781H343.054L347.484 524.955ZM364.556 524.955H366.58L362.532 543.963H373.914L373.532 545.781H360.127L364.556 524.955ZM380.885 524.984H382.909L378.479 545.781H376.455L380.885 524.984ZM385.787 524.955H387.928L391.037 543.229L401.861 524.955H404.003L391.389 545.781H389.571L385.787 524.955ZM407.096 524.955H420.149L419.768 526.773H408.738L407.125 534.283H416.746L416.394 536.013H406.773L405.072 543.963H416.365L415.984 545.781H402.666L407.096 524.955ZM419.739 545.781L424.168 524.955H432.528C433.506 524.955 434.337 525.219 435.022 525.747C435.726 526.255 436.264 526.93 436.635 527.771C437.007 528.592 437.192 529.462 437.192 530.381C437.192 531.222 437.036 532.043 436.723 532.845C436.43 533.647 436.009 534.39 435.462 535.075C434.934 535.759 434.318 536.336 433.614 536.805C432.91 537.275 432.147 537.587 431.326 537.744L434.464 545.781H432.147L429.155 538.096H423.406L421.763 545.781H419.739ZM430.211 536.277C430.876 536.277 431.502 536.111 432.088 535.779C432.675 535.446 433.193 535.006 433.643 534.459C434.093 533.911 434.445 533.305 434.699 532.64C434.953 531.975 435.08 531.3 435.08 530.616C435.08 529.912 434.953 529.276 434.699 528.709C434.445 528.123 434.093 527.653 433.643 527.301C433.193 526.949 432.656 526.773 432.03 526.773H425.811L423.787 536.277H430.211ZM444.105 537.979L439.236 524.955H441.494L445.513 536.16L454.313 524.955H456.542L446.1 538.037L444.457 545.781H442.433L444.105 537.979Z" fill="#0994CF"/>
<mask id="mask1_1_100" style="mask-type:luminance" maskUnits="userSpaceOnUse" x="0" y="0" width="667" height="667">
<path d="M0 6.00815e-05H666.667V666.667H0V6.00815e-05Z" fill="white"/>
</mask>
<g mask="url(#mask1_1_100)">
<path d="M446.293 316.395L435.84 310.853C434.489 310.131 432.796 310.73 432.209 312.182C431.7 313.441 432.337 314.881 433.538 315.517L443.877 320.999C434.709 337.725 421.95 351.767 406.574 362.339C405.552 364.111 403.742 365.226 401.481 365.678C393.596 370.531 385.105 374.526 376.1 377.523C366.662 380.666 357.113 382.555 347.614 383.319L347.592 382.894C345.861 383.081 344.114 383.109 342.394 383.074L342.425 383.627C342.01 383.642 341.598 383.673 341.185 383.682C322.305 384.185 303.817 380.193 287.096 372.442L292.02 362.515C292.625 361.297 292.301 359.75 291.15 359.026C289.826 358.194 288.106 358.703 287.429 360.067L282.422 370.157C265.702 361.522 250.978 349.015 239.717 333.381L248.82 327.213C249.944 326.451 250.422 324.95 249.778 323.754C249.038 322.375 247.289 321.966 246.026 322.825L236.768 329.098C231.15 320.538 226.524 311.134 223.14 300.97C220.397 292.733 218.614 284.407 217.693 276.106L228.605 275.221C229.945 275.111 231.085 274.053 231.124 272.71C231.169 271.134 229.874 269.878 228.314 270.027L217.213 270.929C215.914 251.665 219.329 232.685 226.684 215.433L236.7 220.069C237.052 220.231 237.425 220.309 237.79 220.309C238.942 220.309 240.038 219.537 240.334 218.266C240.616 217.059 239.92 215.829 238.793 215.307L228.829 210.695C236.949 193.695 248.992 178.599 264.226 166.873L270.769 175.987C271.277 176.695 272.074 177.071 272.884 177.071C273.424 177.071 273.97 176.903 274.436 176.555C275.596 175.693 275.742 173.997 274.9 172.823L268.41 163.785C277.796 157.189 288.112 151.813 299.542 148.009C310.333 144.417 320.168 142.399 332.297 141.898V153.361C332.297 154.795 333.893 155.959 335.329 155.959C336.765 155.959 338.361 154.795 338.361 153.361V141.81C354.128 141.778 375.185 146.035 392.308 154.605C392.958 154.93 393.444 155.289 394.088 155.625L388.286 165.761C387.581 167.01 387.986 168.597 389.236 169.303C389.641 169.533 390.062 169.641 390.494 169.641C391.401 169.641 392.273 169.166 392.753 168.319L398.513 158.122C415.289 167.811 429.266 181.157 439.561 197.173L429.521 203.213C428.348 203.918 427.794 205.409 428.39 206.641C428.85 207.587 429.78 208.115 430.738 208.115C431.194 208.115 431.656 207.995 432.076 207.743L442.265 201.613C446.461 208.807 449.962 216.475 452.654 224.562C456.096 234.899 458.076 245.482 458.678 256.075L446.769 256.506C445.058 256.551 443.777 257.974 444.4 259.857C444.749 260.913 445.768 261.611 446.881 261.611H446.909L458.869 261.351C459.036 280.063 454.826 299.151 446.293 316.395ZM467.454 219.634C459.5 195.745 445.524 175.534 427.797 160.069L433.536 153.115L435.99 155.142C438.264 157.017 440.245 157.25 441.808 155.357L445.877 150.426C447.441 148.531 446.958 146.482 444.686 144.606L422.854 126.586C420.582 124.71 418.844 124.929 417.281 126.822L413.21 131.754C411.649 133.647 411.885 135.246 414.157 137.121L416.981 139.45L410.768 146.975L413.134 148.929C393.97 136.291 371.765 128.49 348.581 126.639L348.297 114.121L352.536 114.025C356.461 113.935 358.66 112.445 358.586 109.174L358.393 100.658C358.32 97.3872 356.046 95.7405 352.122 95.8299L314.418 96.6872C310.493 96.7765 308.933 98.5099 309.008 101.781L309.202 110.297C309.274 113.567 310.908 114.971 314.832 114.882L319.706 114.771L319.992 127.417C311.565 128.534 303.124 130.426 294.765 133.207C282.31 137.354 270.877 143.163 260.566 150.257L255.61 143.474L258.18 141.595C260.558 139.858 261.274 137.995 259.825 136.013L256.053 130.85C254.605 128.867 252.5 128.827 250.121 130.566L227.265 147.267C224.884 149.006 224.668 150.743 226.116 152.727L229.888 157.889C231.337 159.871 232.944 160.037 235.324 158.298L238.277 156.139L243.872 163.793C206.75 199.17 191.098 254.11 208.34 305.898C227.774 364.278 283.058 400.839 341.609 399.279C356.416 398.885 371.434 396.049 386.132 390.514C416.953 378.907 442.665 356.373 458.213 327.339C476.125 293.897 479.385 255.471 467.454 219.634Z" fill="#0994CF"/>
<path d="M337.151 165.485L331.103 262.15L279.639 220.345L327.648 276.269C329.15 278.018 331.34 279.024 333.643 279.024H335.874C340.432 279.024 344.046 275.177 343.76 270.628L337.151 165.485Z" fill="#0994CF"/>
<path d="M214.608 433.337L211.943 432.56Z" fill="white"/>
<path d="M194.74 341.09L194.786 340.897C194.293 341.693 193.832 342.499 193.385 343.31H193.405C193.858 342.565 194.3 341.825 194.74 341.09Z" fill="white"/>
<path d="M184.443 388.318C184.4 386.916 184.371 385.428 184.372 383.872L184.029 383.859L181.697 393.176C183.389 392.41 184.525 390.987 184.443 388.318Z" fill="white"/>
<path d="M189.208 353.385L189.007 353.377C188.243 355.656 187.616 357.939 187.094 360.195L187.124 360.193C187.732 357.933 188.338 355.657 189.208 353.385Z" fill="white"/>
<path d="M180.158 399.327C180.158 399.327 180.35 399.267 180.644 399.105C180.502 399.099 180.359 399.093 180.218 399.087L180.158 399.327Z" fill="white"/>
<path d="M212.22 432.212L213.685 433.364L214.608 433.338L212.22 432.212Z" fill="white"/>
<path d="M220.158 440.766C219.608 440.19 219.072 439.602 218.551 438.996C219.183 439.804 219.759 440.467 220.158 440.766Z" fill="white"/>
<path d="M229.372 447.967C228.154 447.267 226.982 446.495 225.842 445.677C227.064 446.645 228.299 447.501 229.372 447.967Z" fill="white"/>
<path d="M486.441 415.975C485.429 419.058 483.815 422.366 481.516 424.773C476.969 429.531 470.247 432.605 463.548 432.625C448.045 432.671 436.877 421.866 434.273 407.986C434.273 407.986 434.264 407.086 434.253 407.086H448.835C448.759 407.086 448.705 408.995 448.705 409.519C448.705 415.538 453.872 420.862 460.245 420.862C466.617 420.862 471.784 415.314 471.784 409.297C471.784 408.773 471.731 407.086 471.655 407.086H488.073C488.816 407.086 486.637 415.374 486.441 415.975ZM272.413 422.861C271.401 425.945 269.785 429.139 267.487 431.546C262.94 436.306 256.217 438.654 249.519 438.674C234.14 438.722 223.037 428.49 220.32 414.639H235.785C235.684 414.639 235.619 416.479 235.619 417.086C235.619 423.103 240.784 428.315 247.156 428.315C253.529 428.315 258.695 422.937 258.695 416.918C258.695 416.311 258.631 414.639 258.528 414.639H274.192C274.187 415.898 272.58 422.347 272.413 422.861ZM508.004 405.795C512.175 347.166 443.155 323.913 443.155 323.913C432.488 293.683 406.892 280.117 404.6 279.003C404.195 278.621 404.403 277.667 405.003 277.627L408.281 277.27C412.324 277.002 415.405 274.41 416.233 270.979C417.765 264.63 419.009 253.867 414.231 242.938C412.863 239.813 409.475 237.885 405.905 238.121L381.152 239.751C375.619 240.117 370.261 241.745 365.544 244.502L342.98 257.689C340.904 258.903 339.711 261.102 339.881 263.402C339.881 263.402 340.328 269.403 340.329 269.423C340.416 270.726 328.385 272.202 327.065 272.786C321.409 275.291 320.267 284.111 327.711 285.071C331.399 285.546 334.005 283.191 336.803 281.394C339.657 279.561 342.836 277.995 345.857 276.405C352.64 272.835 359.603 269.585 366.399 266.038C367.825 265.294 368.584 263.869 368.769 262.339C369.067 259.891 372.636 259.369 373.676 261.645C374.404 263.237 374.463 265.166 372.805 267.273L349.077 279.49C348.103 279.991 348.089 281.286 349.035 281.834C359.052 287.635 367.667 295.859 374.043 305.145C383.533 318.967 391.324 337.391 386.309 354.203C381.465 370.447 364.34 382.527 346.495 382.527C323.327 382.527 304.547 363.897 304.547 340.915C304.547 331.481 307.719 324.323 313.06 317.355C317.093 312.091 313.103 306.365 306.117 306.365H230.42C219.677 306.365 206.063 311.341 206.063 321.255V327.845C199.396 332.539 196.759 337.807 193.405 343.31L66.4241 348.447L189.208 353.386C188.337 355.658 187.732 357.934 187.124 360.194L81.9095 364.438L185.451 368.61C185.007 371.491 184.74 374.295 184.572 376.975L98.8974 380.429L184.372 383.873C184.371 385.429 184.4 386.917 184.443 388.318C184.653 395.139 176.964 393.879 172.152 394.073L152.753 394.854C139.821 395.377 126.889 395.897 113.957 396.419C136.252 397.317 158.548 398.214 180.841 399.114C177.588 398.993 179.788 424.331 180.496 426.545C181.387 429.33 182.063 429.77 184.729 427.211V427.003C188.729 419.271 200.277 417.971 210.032 416.509L210.085 417.53C210.064 418.45 210.204 419.047 210.315 419.961C210.463 421.803 210.919 423.597 211.344 425.402C212.141 428.142 213.236 430.81 214.608 433.337L132.059 435.854L218.104 438.477C218.752 439.277 219.452 440.025 220.157 440.766L149.003 442.935L225.243 445.259C226.565 446.243 227.943 447.146 229.372 447.967L162.176 450.015L240.227 452.395C251.155 455.251 263.247 454.095 273.445 448.151C278.835 445.009 282.997 440.978 286.016 436.977C290.339 431.247 293.108 423.918 293.829 416.909C293.981 415.417 294.019 414.639 294.019 414.639H293.896C293.873 408.345 293.503 406.238 292.84 402.846C325.715 402.846 361.897 402.179 394.561 402.177C394.523 402.922 394.493 403.337 394.488 404.087C394.484 404.674 394.529 405.485 394.545 405.485C394.677 410.814 393.548 414.999 394.941 419.354C395.832 422.139 396.729 422.579 399.396 420.021V419.854C402.063 412.142 414.167 410.862 424.143 409.411L424.156 410.869C424.135 411.787 424.253 412.385 424.365 413.298C424.512 415.141 424.959 416.934 425.383 418.739C426.272 421.79 427.531 424.743 429.137 427.518C429.137 427.518 432.013 432.398 434.347 434.541C434.52 434.674 434.684 434.809 434.816 434.939C434.816 434.939 438.723 438.198 441.752 440.337C442.74 440.969 443.747 441.577 444.781 442.121C446.672 442.629 449.28 446.31 459.925 446.973L461.656 447.026C470.448 447.823 479.536 446.114 487.471 441.489C492.86 438.346 497.024 434.315 500.043 430.314C504.367 424.585 507.136 417.702 507.857 410.693C508.011 409.202 508.048 408.871 508.048 408.871C508.048 408.871 508.016 407.311 508.005 406.761C508.003 406.655 507.993 405.795 508.004 405.795Z" fill="#4F4F4F"/>
<path d="M229.372 447.967L162.176 450.015L237.775 452.321L236.538 451.347C233.467 450.253 231.72 448.989 229.372 447.967Z" fill="#0994CF"/>
<path d="M66.4245 348.448L189.007 353.377C190.145 349.973 191.583 346.584 193.386 343.309L66.4245 348.448Z" fill="#0994CF"/>
<path d="M172.152 394.073L152.754 394.854C139.822 395.377 126.89 395.897 113.958 396.42C136.044 397.309 158.131 398.197 180.218 399.088L181.698 393.176C179.067 394.366 175.08 393.954 172.152 394.073Z" fill="#0994CF"/>
<path d="M213.685 433.365L132.058 435.854L218.104 438.477C218.248 438.655 218.402 438.823 218.55 438.997C217.558 437.725 216.433 436.09 215.638 434.901L213.685 433.365Z" fill="#0994CF"/>
<path d="M149.003 442.935L225.243 445.259C225.437 445.406 225.643 445.535 225.841 445.678C223.475 443.804 221.153 441.511 220.157 440.766L149.003 442.935Z" fill="#0994CF"/>
<path d="M187.094 360.195L81.9084 364.438L185.451 368.61C185.007 371.491 184.739 374.295 184.571 376.975L98.8977 380.429L184.03 383.859L184.606 381.559C184.764 375.673 185.267 368.097 187.094 360.195Z" fill="#0994CF"/>
<path d="M372.788 444.316L459.926 446.972C449.28 446.31 446.672 442.628 444.781 442.122L372.788 444.316Z" fill="#0994CF"/>
<path d="M342.539 430.155L432.73 432.908V432.832C432.73 433.411 433.636 433.988 434.346 434.54C432.012 432.399 429.138 427.518 429.138 427.518L342.539 430.155Z" fill="#0994CF"/>
<path d="M359.553 437.236L427.285 439.299L440.775 439.71C441.093 439.928 441.425 440.128 441.752 440.336C438.723 438.198 434.816 434.938 434.816 434.938L359.553 437.236Z" fill="#0994CF"/>
</g>
<path d="M253.21 364.546C252.879 364.546 252.565 364.498 252.267 364.401C251.977 364.296 251.719 364.151 251.493 363.966C251.267 363.772 251.094 363.551 250.973 363.301H251.167V364.425H250.224V362.104H251.082C251.138 362.418 251.251 362.696 251.42 362.938C251.598 363.18 251.828 363.373 252.11 363.519C252.392 363.656 252.718 363.724 253.089 363.724C253.46 363.724 253.75 363.635 253.959 363.458C254.177 363.281 254.286 363.027 254.286 362.696C254.286 362.43 254.238 362.225 254.141 362.08C254.044 361.927 253.887 361.806 253.669 361.717C253.452 361.628 253.157 361.556 252.787 361.499L252.364 361.415C251.686 361.294 251.15 361.068 250.756 360.738C250.369 360.407 250.175 359.948 250.175 359.359C250.175 358.956 250.264 358.614 250.441 358.332C250.627 358.042 250.884 357.82 251.215 357.667C251.545 357.514 251.932 357.437 252.376 357.437C252.867 357.437 253.299 357.542 253.669 357.751C254.04 357.953 254.306 358.235 254.467 358.598H254.213V357.57H255.12V359.529H254.286C254.238 359.343 254.153 359.154 254.032 358.96C253.919 358.759 253.746 358.594 253.512 358.465C253.278 358.328 252.956 358.259 252.545 358.259C252.174 358.259 251.884 358.348 251.674 358.525C251.473 358.703 251.372 358.932 251.372 359.214C251.372 359.529 251.489 359.77 251.723 359.94C251.965 360.109 252.319 360.238 252.787 360.327L253.101 360.387C253.633 360.476 254.072 360.601 254.419 360.762C254.766 360.923 255.023 361.145 255.193 361.427C255.362 361.701 255.447 362.056 255.447 362.491C255.447 362.878 255.358 363.224 255.181 363.531C255.003 363.837 254.749 364.083 254.419 364.268C254.088 364.454 253.685 364.546 253.21 364.546ZM256.45 364.425V363.627H257.333V358.344H256.45V357.57H259.485V358.344H258.602V363.627H261.19V361.596H262.133V364.425H256.45ZM263.053 364.425V363.627H263.923V358.368H263.053V357.57H266.088V358.368H265.205V363.627H266.088V364.425H263.053ZM267.195 364.425V363.627H268.053V358.368H267.195V357.57H269.806L271.85 362.068L273.796 357.57H276.396V358.368H275.549V363.627H276.396V364.425H273.506V363.627H274.328V358.658L271.934 364.099H271.463L269.033 358.658V363.627H269.855V364.425H267.195Z" fill="white"/>
<path d="M252.108 375.251V374.568H252.874V370.068H251.426V371.465H250.66V369.386H256.153V371.465H255.388V370.068H253.96V374.568H254.726V375.251H252.108ZM256.846 375.251V374.568H257.602V370.068H256.846V369.386H262.081V371.206H261.305V370.068H258.688V371.879H260.26V371.227H260.808V373.234H260.26V372.561H258.688V374.558H261.357V373.379H262.122V375.251H256.846ZM266.256 375.365C265.787 375.365 265.359 375.292 264.973 375.147C264.594 374.996 264.263 374.789 263.98 374.527C263.697 374.258 263.48 373.937 263.328 373.565C263.183 373.192 263.111 372.775 263.111 372.313C263.111 371.72 263.238 371.196 263.494 370.741C263.756 370.279 264.118 369.92 264.58 369.665C265.042 369.41 265.583 369.282 266.204 369.282C266.597 369.282 266.945 369.341 267.249 369.458C267.559 369.575 267.814 369.741 268.014 369.955C268.221 370.168 268.369 370.417 268.459 370.699L268.18 370.617V369.386H268.945V371.248L268.273 371.258C268.066 370.837 267.804 370.534 267.487 370.348C267.176 370.155 266.8 370.058 266.359 370.058C265.918 370.058 265.535 370.158 265.211 370.358C264.894 370.551 264.649 370.817 264.476 371.155C264.304 371.492 264.218 371.875 264.218 372.303C264.218 372.648 264.269 372.961 264.373 373.244C264.476 373.52 264.621 373.758 264.807 373.958C265 374.158 265.225 374.313 265.48 374.423C265.735 374.534 266.014 374.589 266.318 374.589C266.607 374.589 266.876 374.544 267.125 374.454C267.38 374.358 267.604 374.21 267.797 374.01C267.997 373.803 268.149 373.537 268.252 373.213L269.08 373.565C268.935 373.985 268.724 374.33 268.449 374.599C268.173 374.861 267.845 375.054 267.466 375.178C267.094 375.296 266.69 375.358 266.256 375.365ZM270.08 375.251V374.568H270.835V370.068H270.08V369.386H272.677V370.068H271.921V371.899H274.745V370.068H273.99V369.386H276.587V370.068H275.832V374.568H276.587V375.251H273.99V374.568H274.745V372.592H271.921V374.568H272.677V375.251H270.08Z" fill="#41B5E6"/>
<path fill-rule="evenodd" clip-rule="evenodd" d="M227.104 366.824C226.953 366.676 226.712 366.676 226.562 366.824L221.105 372.16C220.95 372.312 220.95 372.563 221.105 372.715L226.562 378.051C226.712 378.199 226.953 378.199 227.104 378.051L232.56 372.715C232.716 372.563 232.716 372.312 232.56 372.16L227.104 366.824ZM231.293 372.456L226.833 368.094L222.373 372.456L226.833 376.818L231.293 372.456Z" fill="#0994CF"/>
<path fill-rule="evenodd" clip-rule="evenodd" d="M218.727 358.452C218.577 358.305 218.336 358.305 218.185 358.452L212.729 363.789C212.573 363.941 212.573 364.191 212.729 364.343L218.185 369.68C218.336 369.827 218.577 369.827 218.727 369.68L224.184 364.343C224.339 364.191 224.339 363.941 224.184 363.789L218.727 358.452ZM222.916 364.085L218.456 359.723L213.996 364.085L218.456 368.447L222.916 364.085Z" fill="#0994CF"/>
<path fill-rule="evenodd" clip-rule="evenodd" d="M235.194 358.558C235.044 358.41 234.803 358.41 234.652 358.558L229.196 363.895C229.04 364.047 229.04 364.297 229.196 364.449L234.652 369.786C234.803 369.933 235.044 369.933 235.194 369.786L240.651 364.449C240.806 364.297 240.806 364.047 240.651 363.895L235.194 358.558ZM239.383 364.191L234.923 359.829L230.463 364.191L234.923 368.553L239.383 364.191Z" fill="#0994CF"/>
<path fill-rule="evenodd" clip-rule="evenodd" d="M226.973 350.109C226.822 349.962 226.581 349.962 226.43 350.109L220.974 355.446C220.819 355.598 220.819 355.849 220.974 356.001L226.43 361.337C226.581 361.485 226.822 361.485 226.973 361.337L232.429 356.001C232.585 355.849 232.585 355.598 232.429 355.446L226.973 350.109ZM231.161 355.742L226.702 351.38L222.242 355.742L226.702 360.104L231.161 355.742Z" fill="#0994CF"/>
</g>
<defs>
<radialGradient id="paint0_radial_1_100" cx="0" cy="0" r="1" gradientUnits="userSpaceOnUse" gradientTransform="translate(333.333 333.333) scale(491.817)">
<stop stop-color="white"/>
<stop offset="0.761544" stop-color="white"/>
<stop offset="1" stop-color="#9C9C9C"/>
</radialGradient>
<clipPath id="clip0_1_100">
<rect width="666.667" height="666.667" fill="white"/>
</clipPath>
</defs>
</svg>
