<svg width="438" height="128" viewBox="0 0 438 128" fill="none" xmlns="http://www.w3.org/2000/svg">
<path d="M101.033 34V13H105.593L112.283 26.32L118.883 13H123.443V34H119.603V19.51L113.753 31H110.723L104.873 19.51V34H101.033ZM128.208 34L135.888 13H140.208L147.888 34H143.808L142.128 29.14H133.938L132.228 34H128.208ZM134.988 26.14H141.078L138.018 17.41L134.988 26.14ZM152.633 34V13H156.473L166.343 27.79V13H170.183V34H166.343L156.473 19.24V34H152.633ZM184.394 34.36C182.854 34.36 181.464 34.06 180.224 33.46C178.984 32.84 177.994 31.91 177.254 30.67C176.534 29.43 176.174 27.86 176.174 25.96V13H180.014V25.99C180.014 27.63 180.404 28.85 181.184 29.65C181.984 30.45 183.084 30.85 184.484 30.85C185.864 30.85 186.954 30.45 187.754 29.65C188.554 28.85 188.954 27.63 188.954 25.99V13H192.794V25.96C192.794 27.86 192.414 29.43 191.654 30.67C190.894 31.91 189.874 32.84 188.594 33.46C187.334 34.06 185.934 34.36 184.394 34.36ZM203.644 34V16.09H197.524V13H213.634V16.09H207.484V34H203.644ZM218.519 34V13H232.229V16.09H222.359V21.85H231.329V24.85H222.359V30.91H232.229V34H218.519ZM237.902 34V13H241.742L251.612 27.79V13H255.452V34H251.612L241.742 19.24V34H237.902ZM271.073 34.36C268.953 34.36 267.133 33.91 265.613 33.01C264.093 32.09 262.923 30.82 262.103 29.2C261.283 27.56 260.873 25.67 260.873 23.53C260.873 21.39 261.283 19.5 262.103 17.86C262.923 16.22 264.093 14.94 265.613 14.02C267.133 13.1 268.953 12.64 271.073 12.64C273.593 12.64 275.653 13.27 277.253 14.53C278.873 15.77 279.883 17.52 280.283 19.78H276.053C275.793 18.64 275.233 17.75 274.373 17.11C273.533 16.45 272.413 16.12 271.013 16.12C269.073 16.12 267.553 16.78 266.453 18.1C265.353 19.42 264.803 21.23 264.803 23.53C264.803 25.83 265.353 27.64 266.453 28.96C267.553 30.26 269.073 30.91 271.013 30.91C272.413 30.91 273.533 30.61 274.373 30.01C275.233 29.39 275.793 28.54 276.053 27.46H280.283C279.883 29.62 278.873 31.31 277.253 32.53C275.653 33.75 273.593 34.36 271.073 34.36ZM268.553 41.95V39.73H271.913C272.973 39.73 273.503 39.37 273.503 38.65C273.503 37.95 272.973 37.6 271.913 37.6H270.083V33.85H272.483V35.56C273.163 35.54 273.793 35.64 274.373 35.86C274.973 36.08 275.453 36.42 275.813 36.88C276.193 37.36 276.383 37.97 276.383 38.71C276.383 39.79 275.993 40.6 275.213 41.14C274.433 41.68 273.523 41.95 272.483 41.95H268.553ZM284.109 34L291.789 13H296.109L303.789 34H299.709L298.029 29.14H289.839L288.129 34H284.109ZM290.889 26.14H296.979L293.919 17.41L290.889 26.14ZM295.839 11.44C295.279 11.44 294.799 11.33 294.399 11.11C293.999 10.87 293.629 10.64 293.289 10.42C292.949 10.18 292.569 10.06 292.149 10.06C291.429 10.06 290.999 10.51 290.859 11.41H288.819C289.019 10.13 289.419 9.19 290.019 8.59C290.639 7.99 291.409 7.69 292.329 7.69C292.889 7.69 293.369 7.81 293.769 8.05C294.169 8.27 294.539 8.5 294.879 8.74C295.219 8.96 295.599 9.07 296.019 9.07C296.359 9.07 296.639 8.96 296.859 8.74C297.099 8.52 297.249 8.18 297.309 7.72H299.349C299.169 9 298.759 9.94 298.119 10.54C297.499 11.14 296.739 11.44 295.839 11.44ZM317.173 34.36C315.073 34.36 313.233 33.9 311.653 32.98C310.093 32.06 308.863 30.79 307.963 29.17C307.083 27.53 306.643 25.64 306.643 23.5C306.643 21.36 307.083 19.48 307.963 17.86C308.863 16.22 310.093 14.94 311.653 14.02C313.233 13.1 315.073 12.64 317.173 12.64C319.253 12.64 321.083 13.1 322.663 14.02C324.243 14.94 325.473 16.22 326.353 17.86C327.233 19.48 327.673 21.36 327.673 23.5C327.673 25.64 327.233 27.53 326.353 29.17C325.473 30.79 324.243 32.06 322.663 32.98C321.083 33.9 319.253 34.36 317.173 34.36ZM317.173 30.91C319.173 30.91 320.763 30.25 321.943 28.93C323.143 27.61 323.743 25.8 323.743 23.5C323.743 21.2 323.143 19.39 321.943 18.07C320.763 16.75 319.173 16.09 317.173 16.09C315.173 16.09 313.573 16.75 312.373 18.07C311.173 19.39 310.573 21.2 310.573 23.5C310.573 25.8 311.173 27.61 312.373 28.93C313.573 30.25 315.173 30.91 317.173 30.91ZM101.033 74V53H108.743C110.423 53 111.803 53.29 112.883 53.87C113.983 54.43 114.803 55.2 115.343 56.18C115.883 57.14 116.153 58.21 116.153 59.39C116.153 60.67 115.813 61.84 115.133 62.9C114.473 63.96 113.433 64.73 112.013 65.21L116.363 74H111.953L108.053 65.72H104.873V74H101.033ZM104.873 62.9H108.503C109.783 62.9 110.723 62.59 111.323 61.97C111.923 61.35 112.223 60.53 112.223 59.51C112.223 58.51 111.923 57.71 111.323 57.11C110.743 56.51 109.793 56.21 108.473 56.21H104.873V62.9ZM120.415 74L128.095 53H132.415L140.095 74H136.015L134.335 69.14H126.145L124.435 74H120.415ZM127.195 66.14H133.285L130.225 57.41L127.195 66.14ZM128.755 51.8V49.1L135.535 45.44V48.56L128.755 51.8ZM144.84 74V53H152.61C154.29 53 155.68 53.28 156.78 53.84C157.88 54.4 158.7 55.17 159.24 56.15C159.78 57.13 160.05 58.23 160.05 59.45C160.05 60.61 159.79 61.68 159.27 62.66C158.75 63.62 157.94 64.4 156.84 65C155.74 65.58 154.33 65.87 152.61 65.87H148.68V74H144.84ZM148.68 62.75H152.37C153.71 62.75 154.67 62.46 155.25 61.88C155.85 61.28 156.15 60.47 156.15 59.45C156.15 58.41 155.85 57.6 155.25 57.02C154.67 56.42 153.71 56.12 152.37 56.12H148.68V62.75ZM165.103 74V53H168.943V74H165.103ZM175.053 74V53H182.223C184.683 53 186.703 53.44 188.283 54.32C189.883 55.18 191.063 56.4 191.823 57.98C192.603 59.54 192.993 61.38 192.993 63.5C192.993 65.62 192.603 67.47 191.823 69.05C191.063 70.61 189.883 71.83 188.283 72.71C186.703 73.57 184.683 74 182.223 74H175.053ZM178.893 70.7H182.043C183.803 70.7 185.193 70.42 186.213 69.86C187.233 69.28 187.963 68.46 188.403 67.4C188.843 66.32 189.063 65.02 189.063 63.5C189.063 62 188.843 60.71 188.403 59.63C187.963 58.55 187.233 57.72 186.213 57.14C185.193 56.56 183.803 56.27 182.043 56.27H178.893V70.7ZM195.723 74L203.403 53H207.723L215.403 74H211.323L209.643 69.14H201.453L199.743 74H195.723ZM202.503 66.14H208.593L205.533 57.41L202.503 66.14ZM229.337 74V53H243.047V56.09H233.177V61.85H242.147V64.85H233.177V70.91H243.047V74H229.337ZM257.909 74V53H261.749L271.619 67.79V53H275.459V74H271.619L261.749 59.24V74H257.909ZM280.22 74L287.9 53H292.22L299.9 74H295.82L294.14 69.14H285.95L284.24 74H280.22ZM287 66.14H293.09L290.03 57.41L287 66.14ZM313.834 74V53H327.394V56.09H317.674V61.97H325.534V65H317.674V74H313.834ZM332.397 74V53H340.107C341.787 53 343.167 53.29 344.247 53.87C345.347 54.43 346.167 55.2 346.707 56.18C347.247 57.14 347.517 58.21 347.517 59.39C347.517 60.67 347.177 61.84 346.497 62.9C345.837 63.96 344.797 64.73 343.377 65.21L347.727 74H343.317L339.417 65.72H336.237V74H332.397ZM336.237 62.9H339.867C341.147 62.9 342.087 62.59 342.687 61.97C343.287 61.35 343.587 60.53 343.587 59.51C343.587 58.51 343.287 57.71 342.687 57.11C342.107 56.51 341.157 56.21 339.837 56.21H336.237V62.9ZM353.129 74V53H366.839V56.09H356.969V61.85H365.939V64.85H356.969V70.91H366.839V74H353.129ZM372.512 74V53H376.352L386.222 67.79V53H390.062V74H386.222L376.352 59.24V74H372.512ZM401.063 74V56.09H394.943V53H411.053V56.09H404.903V74H401.063ZM415.938 74V53H429.648V56.09H419.778V61.85H428.748V64.85H419.778V70.91H429.648V74H415.938ZM101.033 114V93H108.203C110.663 93 112.683 93.44 114.263 94.32C115.863 95.18 117.043 96.4 117.803 97.98C118.583 99.54 118.973 101.38 118.973 103.5C118.973 105.62 118.583 107.47 117.803 109.05C117.043 110.61 115.863 111.83 114.263 112.71C112.683 113.57 110.663 114 108.203 114H101.033ZM104.873 110.7H108.023C109.783 110.7 111.173 110.42 112.193 109.86C113.213 109.28 113.943 108.46 114.383 107.4C114.823 106.32 115.043 105.02 115.043 103.5C115.043 102 114.823 100.71 114.383 99.63C113.943 98.55 113.213 97.72 112.193 97.14C111.173 96.56 109.783 96.27 108.023 96.27H104.873V110.7ZM134.242 114.36C132.142 114.36 130.302 113.9 128.722 112.98C127.162 112.06 125.932 110.79 125.032 109.17C124.152 107.53 123.712 105.64 123.712 103.5C123.712 101.36 124.152 99.48 125.032 97.86C125.932 96.22 127.162 94.94 128.722 94.02C130.302 93.1 132.142 92.64 134.242 92.64C136.322 92.64 138.152 93.1 139.732 94.02C141.312 94.94 142.542 96.22 143.422 97.86C144.302 99.48 144.742 101.36 144.742 103.5C144.742 105.64 144.302 107.53 143.422 109.17C142.542 110.79 141.312 112.06 139.732 112.98C138.152 113.9 136.322 114.36 134.242 114.36ZM134.242 110.91C136.242 110.91 137.832 110.25 139.012 108.93C140.212 107.61 140.812 105.8 140.812 103.5C140.812 101.2 140.212 99.39 139.012 98.07C137.832 96.75 136.242 96.09 134.242 96.09C132.242 96.09 130.642 96.75 129.442 98.07C128.242 99.39 127.642 101.2 127.642 103.5C127.642 105.8 128.242 107.61 129.442 108.93C130.642 110.25 132.242 110.91 134.242 110.91ZM168.87 114.36C166.75 114.36 164.93 113.91 163.41 113.01C161.89 112.09 160.72 110.82 159.9 109.2C159.08 107.56 158.67 105.67 158.67 103.53C158.67 101.39 159.08 99.5 159.9 97.86C160.72 96.22 161.89 94.94 163.41 94.02C164.93 93.1 166.75 92.64 168.87 92.64C171.39 92.64 173.45 93.27 175.05 94.53C176.67 95.77 177.68 97.52 178.08 99.78H173.85C173.59 98.64 173.03 97.75 172.17 97.11C171.33 96.45 170.21 96.12 168.81 96.12C166.87 96.12 165.35 96.78 164.25 98.1C163.15 99.42 162.6 101.23 162.6 103.53C162.6 105.83 163.15 107.64 164.25 108.96C165.35 110.26 166.87 110.91 168.81 110.91C170.21 110.91 171.33 110.61 172.17 110.01C173.03 109.39 173.59 108.54 173.85 107.46H178.08C177.68 109.62 176.67 111.31 175.05 112.53C173.45 113.75 171.39 114.36 168.87 114.36ZM183.52 114V93H187.36V111H196.66V114H183.52ZM202.083 114V93H205.923V114H202.083ZM212.033 114V93H225.743V96.09H215.873V101.85H224.843V104.85H215.873V110.91H225.743V114H212.033ZM231.417 114V93H235.257L245.127 107.79V93H248.967V114H245.127L235.257 99.24V114H231.417ZM259.968 114V96.09H253.848V93H269.958V96.09H263.808V114H259.968ZM274.843 114V93H288.553V96.09H278.683V101.85H287.653V104.85H278.683V110.91H288.553V114H274.843Z" fill="#E7E7E7"/>
<path d="M3.53565 27L0 30.5332L6.22845 41.2971L10.2677 40.7051L34.923 65.3462L32.8199 67.3644C31.7428 68.4408 31.7428 70.0715 32.8199 71.1479L33.9132 72.2431C34.9903 73.3195 36.6383 73.3195 37.4461 72.2431L40.6452 75.4373C40.3759 77.0519 40.6452 78.9706 41.9916 80.316L56.5489 94.78C59.511 97.74 64.358 97.74 67.3201 94.78C70.8207 91.5508 70.7884 86.7232 67.8263 83.7632L53.3525 69.2131C52.0061 67.8676 50.0861 67.3294 48.4705 67.8676L44.9348 64.6735C45.7427 63.5971 45.7427 61.9502 44.9348 61.1402L43.925 60.1338C43.6802 59.8787 43.3863 59.6757 43.061 59.5371C42.7357 59.3984 42.3857 59.3269 42.032 59.3269C41.6783 59.3269 41.3283 59.3984 41.0029 59.5371C40.6776 59.6757 40.3837 59.8787 40.1389 60.1338L38.3725 61.8991L13.7171 37.2606L14.3042 33.2242L3.53565 27ZM56.0453 27.0834C50.7324 26.6421 43.688 30.1619 40.3921 33.2215C36.3367 37.2741 36.9991 42.5726 40.2224 47.6881L34.5029 53.4064L38.5421 57.9461C40.6963 56.0624 43.8739 56.0624 46.0281 57.9461L47.1241 59.0386L47.3772 59.2915L49.7334 56.937C54.602 59.7974 59.6698 60.2092 63.534 56.3476C67.3039 52.8494 71.3916 44.2222 69.5066 39.1093L61.9345 46.9293C60.8574 48.0056 59.2255 48.0056 58.1484 46.9293L50.3204 39.1093C50.0651 38.8647 49.862 38.571 49.7233 38.2459C49.5845 37.9208 49.513 37.571 49.513 37.2176C49.513 36.8641 49.5845 36.5144 49.7233 36.1893C49.862 35.8642 50.0651 35.5705 50.3204 35.3258L58.1511 27.5059C57.4779 27.2691 56.8047 27.148 56.0453 27.0834ZM26.4245 60.637L16.6604 70.3918C15.6111 70.1588 14.5388 70.046 13.464 70.0554C5.92417 70.0554 0 75.9755 0 83.5102C0 91.0449 5.92417 96.965 13.464 96.965C21.0039 96.965 26.928 91.0449 26.928 83.5102C26.928 82.1297 26.7099 80.8031 26.3383 79.5572L32.0605 73.8389L31.2204 72.7464C29.0661 70.5936 29.0823 67.3321 30.9672 65.1767L26.4245 60.637ZM47.2937 72.9159C47.6303 72.9159 47.9481 72.9805 48.2173 73.2523L64.1237 89.1451C64.6623 89.6833 64.6623 90.539 64.1237 91.0772C63.5852 91.6154 62.7235 91.6154 62.1849 91.0772L46.2839 75.1844C45.7453 74.6462 45.7453 73.7904 46.2839 73.2523C46.5532 72.9832 46.9571 72.9159 47.2937 72.9159ZM15.3167 76.5272L20.4492 81.6588L18.5965 88.6365L11.6141 90.4879L6.47889 85.3562L8.33153 78.3785L15.3167 76.5272Z" fill="#0994CF"/>
</svg>
