<svg width="460" height="128" viewBox="0 0 460 128" fill="none" xmlns="http://www.w3.org/2000/svg">
<path d="M120.04 34V13H124.6L131.29 26.32L137.89 13H142.45V34H138.61V19.51L132.76 31H129.73L123.88 19.51V34H120.04ZM147.214 34L154.894 13H159.214L166.894 34H162.814L161.134 29.14H152.944L151.234 34H147.214ZM153.994 26.14H160.084L157.024 17.41L153.994 26.14ZM171.64 34V13H175.48L185.35 27.79V13H189.19V34H185.35L175.48 19.24V34H171.64ZM203.401 34.36C201.861 34.36 200.471 34.06 199.231 33.46C197.991 32.84 197.001 31.91 196.261 30.67C195.541 29.43 195.181 27.86 195.181 25.96V13H199.021V25.99C199.021 27.63 199.411 28.85 200.191 29.65C200.991 30.45 202.091 30.85 203.491 30.85C204.871 30.85 205.961 30.45 206.761 29.65C207.561 28.85 207.961 27.63 207.961 25.99V13H211.801V25.96C211.801 27.86 211.421 29.43 210.661 30.67C209.901 31.91 208.881 32.84 207.601 33.46C206.341 34.06 204.941 34.36 203.401 34.36ZM222.651 34V16.09H216.531V13H232.641V16.09H226.491V34H222.651ZM237.525 34V13H251.235V16.09H241.365V21.85H250.335V24.85H241.365V30.91H251.235V34H237.525ZM256.909 34V13H260.749L270.619 27.79V13H274.459V34H270.619L260.749 19.24V34H256.909ZM290.08 34.36C287.96 34.36 286.14 33.91 284.62 33.01C283.1 32.09 281.93 30.82 281.11 29.2C280.29 27.56 279.88 25.67 279.88 23.53C279.88 21.39 280.29 19.5 281.11 17.86C281.93 16.22 283.1 14.94 284.62 14.02C286.14 13.1 287.96 12.64 290.08 12.64C292.6 12.64 294.66 13.27 296.26 14.53C297.88 15.77 298.89 17.52 299.29 19.78H295.06C294.8 18.64 294.24 17.75 293.38 17.11C292.54 16.45 291.42 16.12 290.02 16.12C288.08 16.12 286.56 16.78 285.46 18.1C284.36 19.42 283.81 21.23 283.81 23.53C283.81 25.83 284.36 27.64 285.46 28.96C286.56 30.26 288.08 30.91 290.02 30.91C291.42 30.91 292.54 30.61 293.38 30.01C294.24 29.39 294.8 28.54 295.06 27.46H299.29C298.89 29.62 297.88 31.31 296.26 32.53C294.66 33.75 292.6 34.36 290.08 34.36ZM287.56 41.95V39.73H290.92C291.98 39.73 292.51 39.37 292.51 38.65C292.51 37.95 291.98 37.6 290.92 37.6H289.09V33.85H291.49V35.56C292.17 35.54 292.8 35.64 293.38 35.86C293.98 36.08 294.46 36.42 294.82 36.88C295.2 37.36 295.39 37.97 295.39 38.71C295.39 39.79 295 40.6 294.22 41.14C293.44 41.68 292.53 41.95 291.49 41.95H287.56ZM303.115 34L310.795 13H315.115L322.795 34H318.715L317.035 29.14H308.845L307.135 34H303.115ZM309.895 26.14H315.985L312.925 17.41L309.895 26.14ZM314.845 11.44C314.285 11.44 313.805 11.33 313.405 11.11C313.005 10.87 312.635 10.64 312.295 10.42C311.955 10.18 311.575 10.06 311.155 10.06C310.435 10.06 310.005 10.51 309.865 11.41H307.825C308.025 10.13 308.425 9.19 309.025 8.59C309.645 7.99 310.415 7.69 311.335 7.69C311.895 7.69 312.375 7.81 312.775 8.05C313.175 8.27 313.545 8.5 313.885 8.74C314.225 8.96 314.605 9.07 315.025 9.07C315.365 9.07 315.645 8.96 315.865 8.74C316.105 8.52 316.255 8.18 316.315 7.72H318.355C318.175 9 317.765 9.94 317.125 10.54C316.505 11.14 315.745 11.44 314.845 11.44ZM336.179 34.36C334.079 34.36 332.239 33.9 330.659 32.98C329.099 32.06 327.869 30.79 326.969 29.17C326.089 27.53 325.649 25.64 325.649 23.5C325.649 21.36 326.089 19.48 326.969 17.86C327.869 16.22 329.099 14.94 330.659 14.02C332.239 13.1 334.079 12.64 336.179 12.64C338.259 12.64 340.089 13.1 341.669 14.02C343.249 14.94 344.479 16.22 345.359 17.86C346.239 19.48 346.679 21.36 346.679 23.5C346.679 25.64 346.239 27.53 345.359 29.17C344.479 30.79 343.249 32.06 341.669 32.98C340.089 33.9 338.259 34.36 336.179 34.36ZM336.179 30.91C338.179 30.91 339.769 30.25 340.949 28.93C342.149 27.61 342.749 25.8 342.749 23.5C342.749 21.2 342.149 19.39 340.949 18.07C339.769 16.75 338.179 16.09 336.179 16.09C334.179 16.09 332.579 16.75 331.379 18.07C330.179 19.39 329.579 21.2 329.579 23.5C329.579 25.8 330.179 27.61 331.379 28.93C332.579 30.25 334.179 30.91 336.179 30.91ZM120.04 74V53H127.75C129.43 53 130.81 53.29 131.89 53.87C132.99 54.43 133.81 55.2 134.35 56.18C134.89 57.14 135.16 58.21 135.16 59.39C135.16 60.67 134.82 61.84 134.14 62.9C133.48 63.96 132.44 64.73 131.02 65.21L135.37 74H130.96L127.06 65.72H123.88V74H120.04ZM123.88 62.9H127.51C128.79 62.9 129.73 62.59 130.33 61.97C130.93 61.35 131.23 60.53 131.23 59.51C131.23 58.51 130.93 57.71 130.33 57.11C129.75 56.51 128.8 56.21 127.48 56.21H123.88V62.9ZM139.421 74L147.101 53H151.421L159.101 74H155.021L153.341 69.14H145.151L143.441 74H139.421ZM146.201 66.14H152.291L149.231 57.41L146.201 66.14ZM147.761 51.8V49.1L154.541 45.44V48.56L147.761 51.8ZM163.847 74V53H171.617C173.297 53 174.687 53.28 175.787 53.84C176.887 54.4 177.707 55.17 178.247 56.15C178.787 57.13 179.057 58.23 179.057 59.45C179.057 60.61 178.797 61.68 178.277 62.66C177.757 63.62 176.947 64.4 175.847 65C174.747 65.58 173.337 65.87 171.617 65.87H167.687V74H163.847ZM167.687 62.75H171.377C172.717 62.75 173.677 62.46 174.257 61.88C174.857 61.28 175.157 60.47 175.157 59.45C175.157 58.41 174.857 57.6 174.257 57.02C173.677 56.42 172.717 56.12 171.377 56.12H167.687V62.75ZM184.109 74V53H187.949V74H184.109ZM194.059 74V53H201.229C203.689 53 205.709 53.44 207.289 54.32C208.889 55.18 210.069 56.4 210.829 57.98C211.609 59.54 211.999 61.38 211.999 63.5C211.999 65.62 211.609 67.47 210.829 69.05C210.069 70.61 208.889 71.83 207.289 72.71C205.709 73.57 203.689 74 201.229 74H194.059ZM197.899 70.7H201.049C202.809 70.7 204.199 70.42 205.219 69.86C206.239 69.28 206.969 68.46 207.409 67.4C207.849 66.32 208.069 65.02 208.069 63.5C208.069 62 207.849 60.71 207.409 59.63C206.969 58.55 206.239 57.72 205.219 57.14C204.199 56.56 202.809 56.27 201.049 56.27H197.899V70.7ZM214.73 74L222.41 53H226.73L234.41 74H230.33L228.65 69.14H220.46L218.75 74H214.73ZM221.51 66.14H227.6L224.54 57.41L221.51 66.14ZM248.343 74V53H262.053V56.09H252.183V61.85H261.153V64.85H252.183V70.91H262.053V74H248.343ZM276.916 74V53H280.756L290.626 67.79V53H294.466V74H290.626L280.756 59.24V74H276.916ZM299.227 74L306.907 53H311.227L318.907 74H314.827L313.147 69.14H304.957L303.247 74H299.227ZM306.007 66.14H312.097L309.037 57.41L306.007 66.14ZM332.84 74V53H346.4V56.09H336.68V61.97H344.54V65H336.68V74H332.84ZM351.404 74V53H359.114C360.794 53 362.174 53.29 363.254 53.87C364.354 54.43 365.174 55.2 365.714 56.18C366.254 57.14 366.524 58.21 366.524 59.39C366.524 60.67 366.184 61.84 365.504 62.9C364.844 63.96 363.804 64.73 362.384 65.21L366.734 74H362.324L358.424 65.72H355.244V74H351.404ZM355.244 62.9H358.874C360.154 62.9 361.094 62.59 361.694 61.97C362.294 61.35 362.594 60.53 362.594 59.51C362.594 58.51 362.294 57.71 361.694 57.11C361.114 56.51 360.164 56.21 358.844 56.21H355.244V62.9ZM372.135 74V53H385.845V56.09H375.975V61.85H384.945V64.85H375.975V70.91H385.845V74H372.135ZM391.519 74V53H395.359L405.229 67.79V53H409.069V74H405.229L395.359 59.24V74H391.519ZM420.07 74V56.09H413.95V53H430.06V56.09H423.91V74H420.07ZM434.945 74V53H448.655V56.09H438.785V61.85H447.755V64.85H438.785V70.91H448.655V74H434.945ZM120.04 114V93H127.21C129.67 93 131.69 93.44 133.27 94.32C134.87 95.18 136.05 96.4 136.81 97.98C137.59 99.54 137.98 101.38 137.98 103.5C137.98 105.62 137.59 107.47 136.81 109.05C136.05 110.61 134.87 111.83 133.27 112.71C131.69 113.57 129.67 114 127.21 114H120.04ZM123.88 110.7H127.03C128.79 110.7 130.18 110.42 131.2 109.86C132.22 109.28 132.95 108.46 133.39 107.4C133.83 106.32 134.05 105.02 134.05 103.5C134.05 102 133.83 100.71 133.39 99.63C132.95 98.55 132.22 97.72 131.2 97.14C130.18 96.56 128.79 96.27 127.03 96.27H123.88V110.7ZM153.248 114.36C151.148 114.36 149.308 113.9 147.728 112.98C146.168 112.06 144.938 110.79 144.038 109.17C143.158 107.53 142.718 105.64 142.718 103.5C142.718 101.36 143.158 99.48 144.038 97.86C144.938 96.22 146.168 94.94 147.728 94.02C149.308 93.1 151.148 92.64 153.248 92.64C155.328 92.64 157.158 93.1 158.738 94.02C160.318 94.94 161.548 96.22 162.428 97.86C163.308 99.48 163.748 101.36 163.748 103.5C163.748 105.64 163.308 107.53 162.428 109.17C161.548 110.79 160.318 112.06 158.738 112.98C157.158 113.9 155.328 114.36 153.248 114.36ZM153.248 110.91C155.248 110.91 156.838 110.25 158.018 108.93C159.218 107.61 159.818 105.8 159.818 103.5C159.818 101.2 159.218 99.39 158.018 98.07C156.838 96.75 155.248 96.09 153.248 96.09C151.248 96.09 149.648 96.75 148.448 98.07C147.248 99.39 146.648 101.2 146.648 103.5C146.648 105.8 147.248 107.61 148.448 108.93C149.648 110.25 151.248 110.91 153.248 110.91ZM187.877 114.36C185.757 114.36 183.937 113.91 182.417 113.01C180.897 112.09 179.727 110.82 178.907 109.2C178.087 107.56 177.677 105.67 177.677 103.53C177.677 101.39 178.087 99.5 178.907 97.86C179.727 96.22 180.897 94.94 182.417 94.02C183.937 93.1 185.757 92.64 187.877 92.64C190.397 92.64 192.457 93.27 194.057 94.53C195.677 95.77 196.687 97.52 197.087 99.78H192.857C192.597 98.64 192.037 97.75 191.177 97.11C190.337 96.45 189.217 96.12 187.817 96.12C185.877 96.12 184.357 96.78 183.257 98.1C182.157 99.42 181.607 101.23 181.607 103.53C181.607 105.83 182.157 107.64 183.257 108.96C184.357 110.26 185.877 110.91 187.817 110.91C189.217 110.91 190.337 110.61 191.177 110.01C192.037 109.39 192.597 108.54 192.857 107.46H197.087C196.687 109.62 195.677 111.31 194.057 112.53C192.457 113.75 190.397 114.36 187.877 114.36ZM202.526 114V93H206.366V111H215.666V114H202.526ZM221.09 114V93H224.93V114H221.09ZM231.04 114V93H244.75V96.09H234.88V101.85H243.85V104.85H234.88V110.91H244.75V114H231.04ZM250.424 114V93H254.264L264.134 107.79V93H267.974V114H264.134L254.264 99.24V114H250.424ZM278.975 114V96.09H272.855V93H288.965V96.09H282.815V114H278.975ZM293.849 114V93H307.559V96.09H297.689V101.85H306.659V104.85H297.689V110.91H307.559V114H293.849Z" fill="#E7E7E7"/>
<circle cx="39" cy="66" r="37" stroke="#0994CF" stroke-width="4"/>
<rect x="42.9714" y="41.5" width="7" height="31.5" rx="3.5" transform="rotate(23.819 42.9714 41.5)" fill="#0994CF"/>
<rect x="52.9621" y="81.5811" width="7" height="24.8677" rx="3.5" transform="rotate(134.182 52.9621 81.5811)" fill="#0994CF"/>
</svg>
