<svg width="643" height="643" viewBox="0 0 643 643" fill="none" xmlns="http://www.w3.org/2000/svg">
<circle cx="322" cy="320" r="248" stroke="#0994CF" stroke-width="4"/>
<circle cx="322" cy="321" r="280.6" stroke="#0994CF" stroke-width="4.8"/>
<path d="M532.99 321.5C532.99 439.986 438.276 535.99 321.5 535.99C204.724 535.99 110.01 439.986 110.01 321.5C110.01 203.014 204.724 107.01 321.5 107.01C438.276 107.01 532.99 203.014 532.99 321.5Z" stroke="#0994CF" stroke-width="4.02"/>
<path d="M500.29 321.5C500.29 422.479 419.769 504.29 320.5 504.29C221.231 504.29 140.71 422.479 140.71 321.5C140.71 220.521 221.231 138.71 320.5 138.71C419.769 138.71 500.29 220.521 500.29 321.5Z" stroke="#0994CF" stroke-width="3.42"/>
<path d="M471.58 321.5C471.58 404.948 404.378 472.58 321.5 472.58C238.622 472.58 171.42 404.948 171.42 321.5C171.42 238.052 238.622 170.42 321.5 170.42C404.378 170.42 471.58 238.052 471.58 321.5Z" stroke="#0994CF" stroke-width="2.84"/>
<circle cx="321.5" cy="321.5" r="318.285" stroke="#0994CF" stroke-width="6.43"/>
</svg>
