<svg width="329" height="108" viewBox="0 0 329 108" fill="none" xmlns="http://www.w3.org/2000/svg">
<path d="M0.0400001 27V6H4.6L11.29 19.32L17.89 6H22.45V27H18.61V12.51L12.76 24H9.73L3.88 12.51V27H0.0400001ZM27.2144 27L34.8944 6H39.2144L46.8944 27H42.8144L41.1344 22.14H32.9444L31.2344 27H27.2144ZM33.9944 19.14H40.0844L37.0244 10.41L33.9944 19.14ZM51.6395 27V6H55.4795L65.3495 20.79V6H69.1895V27H65.3495L55.4795 12.24V27H51.6395ZM83.4006 27.36C81.8606 27.36 80.4706 27.06 79.2306 26.46C77.9906 25.84 77.0006 24.91 76.2606 23.67C75.5406 22.43 75.1806 20.86 75.1806 18.96V6H79.0206V18.99C79.0206 20.63 79.4106 21.85 80.1906 22.65C80.9906 23.45 82.0906 23.85 83.4906 23.85C84.8706 23.85 85.9606 23.45 86.7606 22.65C87.5606 21.85 87.9606 20.63 87.9606 18.99V6H91.8006V18.96C91.8006 20.86 91.4206 22.43 90.6606 23.67C89.9006 24.91 88.8806 25.84 87.6006 26.46C86.3406 27.06 84.9406 27.36 83.4006 27.36ZM102.651 27V9.09H96.5306V6H112.641V9.09H106.491V27H102.651ZM117.525 27V6H131.235V9.09H121.365V14.85H130.335V17.85H121.365V23.91H131.235V27H117.525ZM136.909 27V6H140.749L150.619 20.79V6H154.459V27H150.619L140.749 12.24V27H136.909ZM170.08 27.36C167.96 27.36 166.14 26.91 164.62 26.01C163.1 25.09 161.93 23.82 161.11 22.2C160.29 20.56 159.88 18.67 159.88 16.53C159.88 14.39 160.29 12.5 161.11 10.86C161.93 9.22 163.1 7.94 164.62 7.02C166.14 6.1 167.96 5.64 170.08 5.64C172.6 5.64 174.66 6.27 176.26 7.53C177.88 8.77 178.89 10.52 179.29 12.78H175.06C174.8 11.64 174.24 10.75 173.38 10.11C172.54 9.45 171.42 9.12 170.02 9.12C168.08 9.12 166.56 9.78 165.46 11.1C164.36 12.42 163.81 14.23 163.81 16.53C163.81 18.83 164.36 20.64 165.46 21.96C166.56 23.26 168.08 23.91 170.02 23.91C171.42 23.91 172.54 23.61 173.38 23.01C174.24 22.39 174.8 21.54 175.06 20.46H179.29C178.89 22.62 177.88 24.31 176.26 25.53C174.66 26.75 172.6 27.36 170.08 27.36ZM167.56 34.95V32.73H170.92C171.98 32.73 172.51 32.37 172.51 31.65C172.51 30.95 171.98 30.6 170.92 30.6H169.09V26.85H171.49V28.56C172.17 28.54 172.8 28.64 173.38 28.86C173.98 29.08 174.46 29.42 174.82 29.88C175.2 30.36 175.39 30.97 175.39 31.71C175.39 32.79 175 33.6 174.22 34.14C173.44 34.68 172.53 34.95 171.49 34.95H167.56ZM183.115 27L190.795 6H195.115L202.795 27H198.715L197.035 22.14H188.845L187.135 27H183.115ZM189.895 19.14H195.985L192.925 10.41L189.895 19.14ZM194.845 4.44C194.285 4.44 193.805 4.33 193.405 4.11C193.005 3.87 192.635 3.64 192.295 3.42C191.955 3.18 191.575 3.06 191.155 3.06C190.435 3.06 190.005 3.51 189.865 4.41H187.825C188.025 3.13 188.425 2.19 189.025 1.59C189.645 0.989999 190.415 0.689999 191.335 0.689999C191.895 0.689999 192.375 0.809999 192.775 1.05C193.175 1.27 193.545 1.5 193.885 1.74C194.225 1.96 194.605 2.07 195.025 2.07C195.365 2.07 195.645 1.96 195.865 1.74C196.105 1.52 196.255 1.18 196.315 0.719999H198.355C198.175 2 197.765 2.94 197.125 3.54C196.505 4.14 195.745 4.44 194.845 4.44ZM216.179 27.36C214.079 27.36 212.239 26.9 210.659 25.98C209.099 25.06 207.869 23.79 206.969 22.17C206.089 20.53 205.649 18.64 205.649 16.5C205.649 14.36 206.089 12.48 206.969 10.86C207.869 9.22 209.099 7.94 210.659 7.02C212.239 6.1 214.079 5.64 216.179 5.64C218.259 5.64 220.089 6.1 221.669 7.02C223.249 7.94 224.479 9.22 225.359 10.86C226.239 12.48 226.679 14.36 226.679 16.5C226.679 18.64 226.239 20.53 225.359 22.17C224.479 23.79 223.249 25.06 221.669 25.98C220.089 26.9 218.259 27.36 216.179 27.36ZM216.179 23.91C218.179 23.91 219.769 23.25 220.949 21.93C222.149 20.61 222.749 18.8 222.749 16.5C222.749 14.2 222.149 12.39 220.949 11.07C219.769 9.75 218.179 9.09 216.179 9.09C214.179 9.09 212.579 9.75 211.379 11.07C210.179 12.39 209.579 14.2 209.579 16.5C209.579 18.8 210.179 20.61 211.379 21.93C212.579 23.25 214.179 23.91 216.179 23.91ZM0.0400001 67V46H7.75C9.43 46 10.81 46.29 11.89 46.87C12.99 47.43 13.81 48.2 14.35 49.18C14.89 50.14 15.16 51.21 15.16 52.39C15.16 53.67 14.82 54.84 14.14 55.9C13.48 56.96 12.44 57.73 11.02 58.21L15.37 67H10.96L7.06 58.72H3.88V67H0.0400001ZM3.88 55.9H7.51C8.79 55.9 9.73 55.59 10.33 54.97C10.93 54.35 11.23 53.53 11.23 52.51C11.23 51.51 10.93 50.71 10.33 50.11C9.75 49.51 8.8 49.21 7.48 49.21H3.88V55.9ZM19.4214 67L27.1014 46H31.4214L39.1014 67H35.0214L33.3414 62.14H25.1514L23.4414 67H19.4214ZM26.2014 59.14H32.2914L29.2314 50.41L26.2014 59.14ZM27.7614 44.8V42.1L34.5414 38.44V41.56L27.7614 44.8ZM43.8466 67V46H51.6166C53.2966 46 54.6866 46.28 55.7866 46.84C56.8866 47.4 57.7066 48.17 58.2466 49.15C58.7866 50.13 59.0566 51.23 59.0566 52.45C59.0566 53.61 58.7966 54.68 58.2766 55.66C57.7566 56.62 56.9466 57.4 55.8466 58C54.7466 58.58 53.3366 58.87 51.6166 58.87H47.6866V67H43.8466ZM47.6866 55.75H51.3766C52.7166 55.75 53.6766 55.46 54.2566 54.88C54.8566 54.28 55.1566 53.47 55.1566 52.45C55.1566 51.41 54.8566 50.6 54.2566 50.02C53.6766 49.42 52.7166 49.12 51.3766 49.12H47.6866V55.75ZM64.1092 67V46H67.9492V67H64.1092ZM74.0594 67V46H81.2294C83.6894 46 85.7094 46.44 87.2894 47.32C88.8894 48.18 90.0694 49.4 90.8294 50.98C91.6094 52.54 91.9994 54.38 91.9994 56.5C91.9994 58.62 91.6094 60.47 90.8294 62.05C90.0694 63.61 88.8894 64.83 87.2894 65.71C85.7094 66.57 83.6894 67 81.2294 67H74.0594ZM77.8994 63.7H81.0494C82.8094 63.7 84.1994 63.42 85.2194 62.86C86.2394 62.28 86.9694 61.46 87.4094 60.4C87.8494 59.32 88.0694 58.02 88.0694 56.5C88.0694 55 87.8494 53.71 87.4094 52.63C86.9694 51.55 86.2394 50.72 85.2194 50.14C84.1994 49.56 82.8094 49.27 81.0494 49.27H77.8994V63.7ZM94.7298 67L102.41 46H106.73L114.41 67H110.33L108.65 62.14H100.46L98.7498 67H94.7298ZM101.51 59.14H107.6L104.54 50.41L101.51 59.14ZM128.343 67V46H142.053V49.09H132.183V54.85H141.153V57.85H132.183V63.91H142.053V67H128.343ZM156.916 67V46H160.756L170.626 60.79V46H174.466V67H170.626L160.756 52.24V67H156.916ZM179.227 67L186.907 46H191.227L198.907 67H194.827L193.147 62.14H184.957L183.247 67H179.227ZM186.007 59.14H192.097L189.037 50.41L186.007 59.14ZM212.84 67V46H226.4V49.09H216.68V54.97H224.54V58H216.68V67H212.84ZM231.404 67V46H239.114C240.794 46 242.174 46.29 243.254 46.87C244.354 47.43 245.174 48.2 245.714 49.18C246.254 50.14 246.524 51.21 246.524 52.39C246.524 53.67 246.184 54.84 245.504 55.9C244.844 56.96 243.804 57.73 242.384 58.21L246.734 67H242.324L238.424 58.72H235.244V67H231.404ZM235.244 55.9H238.874C240.154 55.9 241.094 55.59 241.694 54.97C242.294 54.35 242.594 53.53 242.594 52.51C242.594 51.51 242.294 50.71 241.694 50.11C241.114 49.51 240.164 49.21 238.844 49.21H235.244V55.9ZM252.135 67V46H265.845V49.09H255.975V54.85H264.945V57.85H255.975V63.91H265.845V67H252.135ZM271.519 67V46H275.359L285.229 60.79V46H289.069V67H285.229L275.359 52.24V67H271.519ZM300.07 67V49.09H293.95V46H310.06V49.09H303.91V67H300.07ZM314.945 67V46H328.655V49.09H318.785V54.85H327.755V57.85H318.785V63.91H328.655V67H314.945ZM0.0400001 107V86H7.21C9.67 86 11.69 86.44 13.27 87.32C14.87 88.18 16.05 89.4 16.81 90.98C17.59 92.54 17.98 94.38 17.98 96.5C17.98 98.62 17.59 100.47 16.81 102.05C16.05 103.61 14.87 104.83 13.27 105.71C11.69 106.57 9.67 107 7.21 107H0.0400001ZM3.88 103.7H7.03C8.79 103.7 10.18 103.42 11.2 102.86C12.22 102.28 12.95 101.46 13.39 100.4C13.83 99.32 14.05 98.02 14.05 96.5C14.05 95 13.83 93.71 13.39 92.63C12.95 91.55 12.22 90.72 11.2 90.14C10.18 89.56 8.79 89.27 7.03 89.27H3.88V103.7ZM33.2481 107.36C31.1481 107.36 29.3081 106.9 27.7281 105.98C26.1681 105.06 24.9381 103.79 24.0381 102.17C23.1581 100.53 22.7181 98.64 22.7181 96.5C22.7181 94.36 23.1581 92.48 24.0381 90.86C24.9381 89.22 26.1681 87.94 27.7281 87.02C29.3081 86.1 31.1481 85.64 33.2481 85.64C35.3281 85.64 37.1581 86.1 38.7381 87.02C40.3181 87.94 41.5481 89.22 42.4281 90.86C43.3081 92.48 43.7481 94.36 43.7481 96.5C43.7481 98.64 43.3081 100.53 42.4281 102.17C41.5481 103.79 40.3181 105.06 38.7381 105.98C37.1581 106.9 35.3281 107.36 33.2481 107.36ZM33.2481 103.91C35.2481 103.91 36.8381 103.25 38.0181 101.93C39.2181 100.61 39.8181 98.8 39.8181 96.5C39.8181 94.2 39.2181 92.39 38.0181 91.07C36.8381 89.75 35.2481 89.09 33.2481 89.09C31.2481 89.09 29.6481 89.75 28.4481 91.07C27.2481 92.39 26.6481 94.2 26.6481 96.5C26.6481 98.8 27.2481 100.61 28.4481 101.93C29.6481 103.25 31.2481 103.91 33.2481 103.91ZM67.877 107.36C65.757 107.36 63.937 106.91 62.417 106.01C60.897 105.09 59.727 103.82 58.907 102.2C58.087 100.56 57.677 98.67 57.677 96.53C57.677 94.39 58.087 92.5 58.907 90.86C59.727 89.22 60.897 87.94 62.417 87.02C63.937 86.1 65.757 85.64 67.877 85.64C70.397 85.64 72.457 86.27 74.057 87.53C75.677 88.77 76.687 90.52 77.087 92.78H72.857C72.597 91.64 72.037 90.75 71.177 90.11C70.337 89.45 69.217 89.12 67.817 89.12C65.877 89.12 64.357 89.78 63.257 91.1C62.157 92.42 61.607 94.23 61.607 96.53C61.607 98.83 62.157 100.64 63.257 101.96C64.357 103.26 65.877 103.91 67.817 103.91C69.217 103.91 70.337 103.61 71.177 103.01C72.037 102.39 72.597 101.54 72.857 100.46H77.087C76.687 102.62 75.677 104.31 74.057 105.53C72.457 106.75 70.397 107.36 67.877 107.36ZM82.5262 107V86H86.3662V104H95.6662V107H82.5262ZM101.09 107V86H104.93V107H101.09ZM111.04 107V86H124.75V89.09H114.88V94.85H123.85V97.85H114.88V103.91H124.75V107H111.04ZM130.424 107V86H134.264L144.134 100.79V86H147.974V107H144.134L134.264 92.24V107H130.424ZM158.975 107V89.09H152.855V86H168.965V89.09H162.815V107H158.975ZM173.849 107V86H187.559V89.09H177.689V94.85H186.659V97.85H177.689V103.91H187.559V107H173.849Z" fill="#E7E7E7"/>
</svg>
