<svg width="632" height="341" viewBox="0 0 632 341" fill="none" xmlns="http://www.w3.org/2000/svg">
<path d="M538.814 49.7985C662.074 116.196 662.073 223.849 538.811 290.248C415.551 356.646 215.705 356.646 92.4447 290.248C-30.8153 223.85 -30.8153 116.197 92.4473 49.7985C215.707 -16.5988 415.554 -16.6002 538.814 49.7985Z" fill="#0994CF"/>
<path d="M107.519 217.54C107.519 217.54 114.532 221.59 129.183 217.54C129.183 217.54 235.914 279.16 242.92 283.207C249.928 287.252 280.834 292.588 280.834 292.588L340.41 326.984L351.542 330.806L352.871 330.111L345.826 323.858L286.25 289.46C286.25 289.46 270.002 273.826 264.586 270.699C259.168 267.571 150.847 205.034 150.847 205.034C150.847 205.034 157.44 196.33 150.848 192.524C142.571 189.398 101.478 212.259 107.519 217.54Z" fill="#03628A"/>
<path d="M427.061 295.728L547.502 226.19C550.474 224.476 550.474 221.694 547.502 219.978L300.905 77.6051C297.933 75.8904 293.117 75.8904 290.146 77.6051L169.704 147.144C166.733 148.858 166.733 151.64 169.704 153.354L416.302 295.728C419.273 297.442 424.089 297.442 427.061 295.728Z" fill="#03628A"/>
<path d="M245.08 61.2408C244.893 61.4395 244.659 61.6262 244.372 61.7875L234.117 67.7182L226.788 71.9408L218.875 76.5128C217.657 77.2088 215.881 77.3702 214.515 76.9608C214.204 76.8862 213.917 76.7622 213.657 76.6128C213.445 76.4888 213.26 76.3515 213.123 76.2022C213.284 75.9915 213.533 75.8048 213.831 75.6302L214.515 75.2342L226.788 68.1528L234.117 63.9168L239.329 60.9062C240.807 60.0475 243.143 60.0115 244.533 60.8062C244.757 60.9302 244.944 61.0795 245.08 61.2288V61.2408ZM255.217 55.4275C255.068 55.5755 254.869 55.7248 254.633 55.8622C253.243 56.6688 250.981 56.6688 249.589 55.8622C249.353 55.7248 249.167 55.5755 249.005 55.4275C249.167 55.2662 249.353 55.1168 249.589 54.9795C250.981 54.1848 253.243 54.1848 254.633 54.9795C254.869 55.1168 255.068 55.2662 255.217 55.4275ZM297.249 24.9462C295.772 24.0888 293.821 23.6662 291.871 23.6662C289.92 23.6662 287.969 24.0888 286.492 24.9462L271.684 33.4928L256.056 42.5128L234.117 55.1835L226.788 59.4195L214.515 66.5008L193.197 78.8115L166.053 94.4768C165.867 94.5888 165.693 94.7008 165.532 94.8115C165.444 94.8742 165.357 94.9355 165.283 94.9982C165.171 95.0848 165.072 95.1728 164.985 95.2595C164.873 95.3582 164.773 95.4582 164.687 95.5702C164.675 95.5822 164.663 95.5822 164.663 95.5942C164.587 95.6568 164.525 95.7315 164.488 95.8062C164.413 95.8928 164.351 95.9915 164.289 96.0915C164.276 96.1035 164.264 96.1168 164.264 96.1288C164.003 96.5515 163.855 96.9982 163.841 97.4448V97.6062C163.841 97.7435 163.855 97.8795 163.88 98.0288C163.991 98.7248 164.388 99.4075 165.084 100.005C165.357 100.253 165.68 100.477 166.053 100.687L180.861 109.235L183.383 107.781L193.197 102.117L214.515 89.8048L226.788 82.7248L234.117 78.4888L256.056 65.8288L271.684 56.7982L312.057 33.4928L297.249 24.9462Z" fill="#455A64"/>
<mask id="mask0_2_1564" style="mask-type:luminance" maskUnits="userSpaceOnUse" x="163" y="20" width="384" height="225">
<path d="M163.842 20.7352H546.066V244.349H163.842V20.7352Z" fill="white"/>
</mask>
<g mask="url(#mask0_2_1564)">
<g opacity="0.300003">
<path d="M213.831 75.6308L214.514 75.2334L226.789 68.1535L234.118 63.9161L239.323 60.9095C240.801 60.0521 243.137 60.0161 244.527 60.8108C244.751 60.9348 244.938 61.0841 245.074 61.2335V61.2455C244.887 61.4441 244.653 61.6308 244.366 61.7921L234.118 67.7175L226.789 71.9415L218.875 76.5134C217.658 77.2094 215.881 77.3708 214.514 76.9601C214.203 76.8854 213.918 76.7614 213.657 76.6121C213.446 76.4881 213.259 76.3521 213.123 76.2028C213.285 75.9921 213.533 75.8054 213.831 75.6308ZM249.583 54.9841C250.975 54.1895 253.237 54.1895 254.627 54.9841C254.863 55.1215 255.062 55.2695 255.211 55.4321C255.062 55.5801 254.863 55.7295 254.627 55.8668C253.237 56.6735 250.975 56.6735 249.583 55.8668C249.347 55.7295 249.162 55.5801 248.999 55.4321C249.162 55.2695 249.347 55.1215 249.583 54.9841ZM460.089 204.508C460.411 203.713 461.118 202.967 462.199 202.333L466.362 199.924L471.629 196.88C474.598 195.165 479.269 195.079 482.051 196.693C482.945 197.215 483.542 197.849 483.829 198.532C483.505 199.327 482.809 200.073 481.717 200.707L472.299 206.148C470.647 207.104 468.447 207.551 466.362 207.476C464.71 207.427 463.107 207.043 461.877 206.333C460.97 205.812 460.374 205.179 460.089 204.508ZM545.93 166.653C545.83 166.38 545.693 166.119 545.519 165.857C545.159 165.324 544.601 164.827 543.854 164.392L529.047 155.845L466.362 119.657L431.167 99.3334L297.25 22.0268C295.773 21.1695 293.822 20.7348 291.871 20.7348C289.921 20.7348 287.97 21.1695 286.493 22.0268L271.685 30.5735L256.055 39.6041L234.118 52.2641L226.789 56.5001L214.514 63.5801L193.197 75.8921L166.054 91.5574C165.866 91.6694 165.693 91.7801 165.531 91.8921C165.37 92.0041 165.221 92.1294 165.083 92.2401C164.947 92.3641 164.823 92.4894 164.711 92.6134C164.601 92.7374 164.501 92.8734 164.401 92.9974C164.401 92.9974 164.389 92.9974 164.389 93.0108C164.314 93.1094 164.265 93.2094 164.202 93.3081C164.165 93.3708 164.127 93.4454 164.103 93.5081C164.09 93.5321 164.078 93.5454 164.066 93.5694C164.054 93.6068 164.041 93.6308 164.027 93.6694C164.015 93.7068 164.003 93.7428 163.991 93.7681C163.954 93.8548 163.929 93.9414 163.917 94.0294C163.905 94.0908 163.891 94.1534 163.879 94.2148C163.855 94.3641 163.842 94.5014 163.842 94.6374V97.6068C163.842 97.7428 163.855 97.8801 163.879 98.0294C163.905 98.1654 163.929 98.3028 163.978 98.4388C164.251 99.2708 164.947 100.053 166.054 100.687L397.837 234.519H397.85L412.646 243.065C414.135 243.923 416.086 244.345 418.025 244.345C418.373 244.357 418.733 244.332 419.081 244.295C419.229 244.295 419.39 244.283 419.541 244.257C419.814 244.233 420.099 244.196 420.373 244.133C420.745 244.072 421.106 243.984 421.453 243.873C422.162 243.673 422.831 243.4 423.415 243.065L543.854 173.523C544.601 173.088 545.147 172.603 545.519 172.069C545.594 171.957 545.667 171.857 545.73 171.745C545.73 171.721 545.742 171.696 545.769 171.671V171.659C545.842 171.509 545.891 171.373 545.942 171.224C545.979 171.1 546.015 170.964 546.029 170.839C546.054 170.703 546.066 170.553 546.066 170.416V170.243C546.054 169.647 546.054 168.292 546.066 167.684V167.659V167.485C546.066 167.199 546.015 166.925 545.93 166.653Z" fill="#27DEBF"/>
</g>
</g>
<mask id="mask1_2_1564" style="mask-type:luminance" maskUnits="userSpaceOnUse" x="163" y="20" width="384" height="222">
<path d="M163.842 20.7352H546.066V241.438H163.842V20.7352Z" fill="white"/>
</mask>
<g mask="url(#mask1_2_1564)">
<g opacity="0.100006">
<path d="M481.716 200.706L472.3 206.148C470.647 207.104 468.448 207.552 466.361 207.477C464.709 207.428 463.107 207.042 461.876 206.334C460.97 205.813 460.373 205.178 460.088 204.508C460.411 203.713 461.119 202.968 462.199 202.334L466.361 199.924L471.63 196.88C474.598 195.166 479.268 195.078 482.051 196.694C482.946 197.216 483.542 197.849 483.828 198.533C483.506 199.328 482.808 200.073 481.716 200.706ZM254.628 55.8663C253.236 56.6743 250.975 56.6743 249.584 55.8663C249.348 55.7303 249.161 55.581 249 55.4316C249.161 55.2703 249.348 55.121 249.584 54.9836C250.975 54.189 253.236 54.189 254.628 54.9836C254.864 55.121 255.063 55.2703 255.212 55.4316C255.063 55.581 254.864 55.7303 254.628 55.8663ZM245.075 61.245C244.888 61.445 244.652 61.6303 244.367 61.7916L234.117 67.7183L226.788 71.941L218.875 76.513C217.658 77.209 215.881 77.3703 214.515 76.9596C214.204 76.8863 213.917 76.7623 213.657 76.613C213.445 76.4876 213.26 76.3516 213.123 76.2023C213.284 75.9916 213.533 75.805 213.831 75.6303L214.515 75.2343L226.788 68.153L234.117 63.917L239.323 60.9103C240.8 60.053 243.136 60.0156 244.528 60.8103C244.751 60.9343 244.939 61.0836 245.075 61.233V61.245ZM545.93 166.653C545.843 166.38 545.706 166.118 545.52 165.858C545.159 165.324 544.6 164.826 543.855 164.392L529.047 155.845L466.361 119.657L431.168 99.3343L297.249 22.0263C295.772 21.1703 293.821 20.7343 291.871 20.7343C289.92 20.7343 287.97 21.1703 286.492 22.0263L271.684 30.573L256.056 39.605L234.117 52.2636L226.788 56.4996L214.515 63.581L193.197 75.8916L166.054 91.557C165.867 91.669 165.693 91.781 165.532 91.893C165.369 92.005 165.222 92.129 165.084 92.2396C164.947 92.365 164.824 92.489 164.712 92.613C164.6 92.737 164.5 92.873 164.402 92.9983C164.402 92.9983 164.388 92.9983 164.388 93.0103C164.313 93.1103 164.264 93.209 164.203 93.309C164.166 93.3716 164.128 93.445 164.103 93.5076C164.091 93.533 164.077 93.545 164.065 93.569C164.053 93.6063 164.041 93.6316 164.028 93.669C164.016 93.7063 164.003 93.7436 163.991 93.7676C163.953 93.8556 163.929 93.9423 163.916 94.029C163.904 94.0916 163.892 94.153 163.88 94.2156C163.855 94.365 163.841 94.501 163.841 94.6383V94.849C163.841 94.9236 163.855 95.0116 163.867 95.085C163.867 95.1103 163.88 95.1343 163.892 95.1596C163.892 95.185 163.892 95.2223 163.904 95.2596C163.904 95.309 163.93 95.3716 163.942 95.421C163.954 95.433 163.954 95.457 163.967 95.4823C163.967 95.4823 163.967 95.4956 163.979 95.5076C164.003 95.5823 164.028 95.657 164.065 95.7316C164.128 95.893 164.215 96.0543 164.327 96.2156C164.388 96.3156 164.464 96.4023 164.525 96.501C164.587 96.589 164.661 96.6756 164.736 96.7503C164.799 96.8236 164.86 96.8863 164.935 96.949C164.947 96.961 164.96 96.973 164.985 96.985C165.035 97.0356 165.11 97.097 165.171 97.1476C165.432 97.3716 165.718 97.5823 166.054 97.7676L397.851 231.598L400.371 233.053L412.645 240.146C412.832 240.258 413.029 240.357 413.229 240.444C413.279 240.469 413.328 240.493 413.391 240.518C413.466 240.556 413.552 240.593 413.639 240.618C413.664 240.642 413.688 240.642 413.714 240.656C413.95 240.754 414.198 240.842 414.447 240.916C414.471 240.929 414.484 240.929 414.496 240.929C414.783 241.016 415.056 241.09 415.341 241.14C415.353 241.152 415.379 241.165 415.404 241.165L415.627 241.202C415.912 241.264 416.211 241.301 416.51 241.338C416.632 241.364 416.744 241.376 416.868 241.376C416.994 241.388 417.105 241.401 417.229 241.401C417.489 241.426 417.763 241.438 418.024 241.438C419.975 241.438 421.912 241.004 423.404 240.146L431.168 235.661L466.361 215.35L543.855 170.604C544.028 170.504 544.201 170.392 544.352 170.28C544.464 170.206 544.576 170.13 544.675 170.032C544.774 169.957 544.873 169.882 544.961 169.784C545.072 169.684 545.184 169.572 545.271 169.46C545.32 169.424 545.358 169.373 545.383 169.324C545.482 169.212 545.57 169.088 545.643 168.964C545.706 168.852 545.768 168.752 545.804 168.641C545.855 168.553 545.892 168.454 545.916 168.368C545.955 168.292 545.979 168.218 545.991 168.13C546.004 168.081 546.016 168.02 546.028 167.957C546.04 167.87 546.054 167.784 546.067 167.684V167.658V167.485C546.067 167.2 546.016 166.926 545.93 166.653Z" fill="#27DEBF"/>
</g>
</g>
<mask id="mask2_2_1564" style="mask-type:luminance" maskUnits="userSpaceOnUse" x="163" y="94" width="384" height="151">
<path d="M163.842 94.7992H546.066V244.351H163.842V94.7992Z" fill="white"/>
</mask>
<g mask="url(#mask2_2_1564)">
<g opacity="0.199997">
<path d="M546.066 170.417C546.066 171.547 545.345 172.666 543.854 173.523L423.416 243.065C420.434 244.779 415.626 244.779 412.646 243.065L166.053 100.687C164.574 99.8432 163.842 98.7245 163.842 97.6072V94.7992C163.892 95.8805 164.624 96.9485 166.053 97.7685L412.646 240.146C415.626 241.861 420.434 241.861 423.404 240.146L543.854 170.603C545.27 169.783 546.004 168.739 546.066 167.659C546.053 168.33 546.053 169.97 546.066 170.417Z" fill="black"/>
</g>
</g>
<mask id="mask3_2_1564" style="mask-type:luminance" maskUnits="userSpaceOnUse" x="259" y="30" width="13" height="129">
<path d="M259.37 30.5725H271.689V158.762H259.37V30.5725Z" fill="white"/>
</mask>
<g mask="url(#mask3_2_1564)">
<g opacity="0.300003">
<path d="M271.689 30.5728L259.37 37.6861V151.647L271.689 158.762V30.5728Z" fill="white"/>
</g>
</g>
<mask id="mask4_2_1564" style="mask-type:luminance" maskUnits="userSpaceOnUse" x="278" y="21" width="9" height="147">
<path d="M278.762 21.9845H286.58V167.359H278.762V21.9845Z" fill="white"/>
</mask>
<g mask="url(#mask4_2_1564)">
<g opacity="0.300003">
<path d="M286.579 21.985C286.552 21.9996 286.521 22.0103 286.496 22.025L278.763 26.489V162.846L286.579 167.358V21.985Z" fill="white"/>
</g>
</g>
<mask id="mask5_2_1564" style="mask-type:luminance" maskUnits="userSpaceOnUse" x="345" y="49" width="36" height="173">
<path d="M345.244 49.7312H380.44V221.55H345.244V49.7312Z" fill="white"/>
</mask>
<g mask="url(#mask5_2_1564)">
<g opacity="0.300003">
<path d="M380.44 70.052L345.244 49.732V201.229L380.44 221.549V70.052Z" fill="white"/>
</g>
</g>
<mask id="mask6_2_1564" style="mask-type:luminance" maskUnits="userSpaceOnUse" x="193" y="63" width="22" height="63">
<path d="M193.197 63.5805H214.514V125.745H193.197V63.5805Z" fill="white"/>
</mask>
<g mask="url(#mask6_2_1564)">
<g opacity="0.300003">
<path d="M212.663 75.1965C212.663 75.5445 212.813 75.9045 213.123 76.2019C213.259 76.3512 213.446 76.4885 213.657 76.6125C213.918 76.7619 214.203 76.8859 214.514 76.9605V125.745L193.197 113.446V75.8912L214.514 63.5805V73.2085L213.831 73.6059C213.049 74.0539 212.663 74.6379 212.663 75.1965Z" fill="white"/>
</g>
</g>
<mask id="mask7_2_1564" style="mask-type:luminance" maskUnits="userSpaceOnUse" x="226" y="52" width="9" height="15">
<path d="M226.788 52.2632H234.118V66.1152H226.788V52.2632Z" fill="white"/>
</mask>
<g mask="url(#mask7_2_1564)">
<g opacity="0.300003">
<path d="M234.118 52.2636V61.8783L226.789 66.1156V56.4996L234.118 52.2636Z" fill="white"/>
</g>
</g>
<mask id="mask8_2_1564" style="mask-type:luminance" maskUnits="userSpaceOnUse" x="226" y="67" width="9" height="71">
<path d="M226.788 67.7179H234.118V137.074H226.788V67.7179Z" fill="white"/>
</mask>
<g mask="url(#mask8_2_1564)">
<g opacity="0.300003">
<path d="M226.788 71.9413L234.118 67.7187V137.075L226.788 132.837V71.9413Z" fill="white"/>
</g>
</g>
<mask id="mask9_2_1564" style="mask-type:luminance" maskUnits="userSpaceOnUse" x="493" y="135" width="17" height="65">
<path d="M493.882 135.549H509.516V199.459H493.882V135.549Z" fill="white"/>
</mask>
<g mask="url(#mask9_2_1564)">
<g opacity="0.300003">
<path d="M509.517 144.574L493.882 135.549V199.459L509.517 190.433V144.574Z" fill="white"/>
</g>
</g>
<mask id="mask10_2_1564" style="mask-type:luminance" maskUnits="userSpaceOnUse" x="431" y="99" width="36" height="137">
<path d="M431.168 99.3339H466.361V235.674H431.168V99.3339Z" fill="white"/>
</mask>
<g mask="url(#mask10_2_1564)">
<g opacity="0.300003">
<path d="M460.038 202.644C459.89 203.042 459.84 203.439 459.9 203.824V203.887C459.939 204.098 460.002 204.31 460.088 204.507C460.374 205.179 460.97 205.812 461.876 206.334C463.107 207.042 464.71 207.427 466.362 207.476V215.35L431.168 235.674V99.3337L466.362 119.658V197.923L462.199 200.322C461.43 200.768 460.844 201.278 460.46 201.824C460.274 202.086 460.124 202.359 460.038 202.644Z" fill="white"/>
</g>
</g>
<mask id="mask11_2_1564" style="mask-type:luminance" maskUnits="userSpaceOnUse" x="516" y="148" width="9" height="39">
<path d="M516.59 148.659H524.406V186.349H516.59V148.659Z" fill="white"/>
</mask>
<g mask="url(#mask11_2_1564)">
<g opacity="0.300003">
<path d="M524.406 153.171L516.59 148.659V186.349L524.406 181.837V153.171Z" fill="white"/>
</g>
</g>
<mask id="mask12_2_1564" style="mask-type:luminance" maskUnits="userSpaceOnUse" x="323" y="37" width="9" height="157">
<path d="M323.29 37.0579H331.108V193.067H323.29V37.0579Z" fill="white"/>
</mask>
<g mask="url(#mask12_2_1564)">
<g opacity="0.300003">
<path d="M323.291 188.555L331.107 193.068V41.5707L323.291 37.0573V188.555Z" fill="white"/>
</g>
</g>
<mask id="mask13_2_1564" style="mask-type:luminance" maskUnits="userSpaceOnUse" x="398" y="80" width="9" height="157">
<path d="M398.981 80.7566H406.797V236.767H398.981V80.7566Z" fill="white"/>
</mask>
<g mask="url(#mask13_2_1564)">
<g opacity="0.300003">
<path d="M406.797 85.2695L398.981 80.7562V232.253L406.797 236.767V85.2695Z" fill="white"/>
</g>
</g>
<path d="M546.066 170.417C546.053 169.97 546.053 168.33 546.066 167.659C546.004 168.739 545.27 169.783 543.854 170.603L423.404 240.146C420.434 241.861 415.626 241.861 412.646 240.146L397.846 231.601L397.844 234.515L397.845 234.519L412.646 243.065C415.626 244.779 420.434 244.779 423.416 243.065L543.854 173.523C545.345 172.666 546.066 171.547 546.066 170.417Z" fill="#455A64"/>
<path d="M418.03 241.432C416.085 241.432 414.137 241.004 412.646 240.146L397.846 231.601L397.843 234.516L397.845 234.52L412.646 243.065C414.135 243.922 416.083 244.35 418.03 244.35V241.432Z" fill="#37474F"/>
<path d="M163.842 94.7995V97.6061C163.842 98.7248 164.575 99.8435 166.054 100.687L180.854 109.233V106.322C180.854 106.322 180.834 106.306 180.822 106.295L166.054 97.7688C164.624 96.9488 163.892 95.8808 163.842 94.7995Z" fill="#37474F"/>
<mask id="mask14_2_1564" style="mask-type:luminance" maskUnits="userSpaceOnUse" x="212" y="52" width="44" height="28">
<path d="M212.664 52.3499H255.665V79.2205H212.664V52.3499Z" fill="white"/>
</mask>
<g mask="url(#mask14_2_1564)">
<g opacity="0.199997">
<path d="M245.08 61.2408C244.893 61.4395 244.659 61.6262 244.372 61.7875L234.117 67.7182L226.788 71.9408L218.875 76.5128C217.657 77.2088 215.881 77.3701 214.515 76.9608C214.204 76.8861 213.917 76.7621 213.657 76.6128C213.445 76.4888 213.26 76.3515 213.123 76.2021C213.284 75.9915 213.533 75.8048 213.831 75.6301L214.515 75.2341L226.788 68.1528L234.117 63.9168L239.329 60.9062C240.807 60.0475 243.143 60.0115 244.533 60.8062C244.757 60.9302 244.944 61.0795 245.08 61.2288V61.2408ZM245.527 60.1728C245.527 59.6635 245.204 59.1542 244.533 58.7808C243.143 57.9742 240.807 58.0115 239.329 58.8688L234.117 61.8795L226.788 66.1155L214.515 73.2088L213.831 73.6062C213.049 74.0528 212.664 74.6248 212.664 75.1968C212.676 75.5448 212.664 76.8981 212.676 77.2581C212.676 77.7688 213.011 78.2648 213.657 78.6501C213.917 78.7981 214.204 78.9101 214.515 78.9981C215.881 79.4075 217.657 79.2462 218.875 78.5502L226.788 73.9795L234.117 69.7555L244.372 63.8248C245.131 63.3902 245.515 62.8182 245.527 62.2715C245.54 61.8995 245.527 60.5328 245.527 60.1728Z" fill="black"/>
<path d="M254.633 55.8619C253.243 56.6685 250.981 56.6685 249.589 55.8619C249.353 55.7245 249.167 55.5765 249.005 55.4272C249.167 55.2659 249.353 55.1165 249.589 54.9792C250.981 54.1845 253.243 54.1845 254.633 54.9792C254.869 55.1165 255.068 55.2659 255.217 55.4272C255.068 55.5765 254.869 55.7245 254.633 55.8619ZM254.633 52.9552C253.243 52.1472 250.981 52.1472 249.589 52.9552C248.881 53.3525 248.547 53.8872 248.547 54.4085C248.559 54.7565 248.547 56.0845 248.547 56.4459C248.547 56.9672 248.881 57.4899 249.589 57.8992C250.981 58.7072 253.243 58.7072 254.633 57.8992C255.328 57.4899 255.677 56.9672 255.664 56.4459V54.4085C255.664 53.8739 255.328 53.3525 254.633 52.9552Z" fill="black"/>
</g>
</g>
<mask id="mask15_2_1564" style="mask-type:luminance" maskUnits="userSpaceOnUse" x="212" y="52" width="44" height="25">
<path d="M212.664 52.3499H255.665V76.2032H212.664V52.3499Z" fill="white"/>
</mask>
<g mask="url(#mask15_2_1564)">
<g opacity="0.300003">
<path d="M245.466 59.8124C245.44 59.6884 245.379 59.5631 245.279 59.4391C245.243 59.3777 245.192 59.3151 245.143 59.2657C245.092 59.2031 245.031 59.1417 244.968 59.0911C244.907 59.0417 244.844 58.9791 244.77 58.9297C244.695 58.8804 244.622 58.8311 244.534 58.7817C243.143 57.9737 240.807 58.0111 239.328 58.8684L213.831 73.6057C213.05 74.0537 212.663 74.6377 212.663 75.1964C212.663 75.5444 212.812 75.9044 213.123 76.2017C213.284 75.9911 213.534 75.8057 213.831 75.6311L214.515 75.2337L226.788 68.1524L234.118 63.9164L239.328 60.9057C240.807 60.0484 243.143 60.0111 244.534 60.8057C244.758 60.9297 244.944 61.0791 245.08 61.2284C245.379 60.9057 245.527 60.5457 245.527 60.1977C245.527 60.0724 245.515 59.9364 245.466 59.8124Z" fill="black"/>
<path d="M255.627 54.11C255.602 54.0113 255.578 53.9233 255.528 53.8247C255.367 53.5007 255.068 53.2033 254.634 52.9553C253.242 52.1473 250.982 52.1473 249.59 52.9553C249.466 53.0287 249.354 53.1047 249.255 53.166C249.143 53.266 249.043 53.3527 248.944 53.4513C248.882 53.526 248.82 53.6007 248.77 53.6753C248.72 53.762 248.683 53.8367 248.646 53.9233C248.571 54.0847 248.559 54.234 248.546 54.3953V54.4087V54.6073C248.596 54.8927 248.758 55.166 249.006 55.4273C249.167 55.266 249.354 55.1167 249.59 54.9793C250.982 54.1847 253.242 54.1847 254.634 54.9793C254.87 55.1167 255.056 55.2527 255.206 55.4273C255.466 55.166 255.615 54.8927 255.664 54.6073V54.3953C255.664 54.2967 255.652 54.21 255.627 54.11Z" fill="black"/>
</g>
</g>
<mask id="mask16_2_1564" style="mask-type:luminance" maskUnits="userSpaceOnUse" x="212" y="52" width="44" height="25">
<path d="M212.664 52.3499H255.665V76.2032H212.664V52.3499Z" fill="white"/>
</mask>
<g mask="url(#mask16_2_1564)">
<g opacity="0.699997">
<path d="M245.527 60.1972C245.527 60.5452 245.378 60.9052 245.081 61.2279C244.945 61.0799 244.757 60.9305 244.534 60.8065C243.142 60.0105 240.806 60.0479 239.329 60.9052L234.118 63.9172L226.789 68.1532L214.514 75.2332L213.831 75.6305C213.533 75.8052 213.285 75.9919 213.123 76.2025C212.813 75.9039 212.663 75.5439 212.663 75.1972C212.663 74.6372 213.049 74.0532 213.831 73.6065L239.329 58.8679C240.806 58.0105 243.142 57.9745 244.534 58.7812C244.621 58.8305 244.695 58.8812 244.77 58.9305C244.845 58.9799 244.906 59.0425 244.969 59.0919C245.03 59.1412 245.093 59.2039 245.142 59.2652C245.193 59.3145 245.242 59.3772 245.279 59.4399C245.366 59.5639 245.429 59.6879 245.466 59.8119C245.515 59.9372 245.527 60.0732 245.527 60.1972Z" fill="#27DEBF"/>
<path d="M255.665 54.3957V54.6077C255.614 54.8931 255.466 55.1664 255.205 55.4264C255.055 55.2531 254.87 55.1171 254.634 54.9797C253.242 54.1851 250.981 54.1851 249.59 54.9797C249.354 55.1171 249.167 55.2651 249.006 55.4264C248.757 55.1664 248.595 54.8931 248.546 54.6077V54.4077V54.3957C248.558 54.2344 248.571 54.0851 248.646 53.9237C248.683 53.8371 248.721 53.7624 248.77 53.6744C248.819 53.6011 248.882 53.5264 248.943 53.4517C249.043 53.3517 249.142 53.2651 249.254 53.1664C249.354 53.1037 249.466 53.0291 249.59 52.9544C250.981 52.1464 253.242 52.1464 254.634 52.9544C255.069 53.2024 255.366 53.5011 255.527 53.8251C255.578 53.9237 255.602 54.0104 255.627 54.1104C255.653 54.2091 255.665 54.2971 255.665 54.3957Z" fill="#27DEBF"/>
</g>
</g>
<mask id="mask17_2_1564" style="mask-type:luminance" maskUnits="userSpaceOnUse" x="459" y="193" width="26" height="17">
<path d="M459.889 193.535H484.038V209.485H459.889V193.535Z" fill="white"/>
</mask>
<g mask="url(#mask17_2_1564)">
<g opacity="0.199997">
<path d="M483.43 199.228C483.368 199.327 483.282 199.427 483.194 199.526C482.822 199.948 482.338 200.346 481.716 200.706L472.299 206.147C471.914 206.371 471.504 206.57 471.07 206.731C470.684 206.88 470.275 207.004 469.864 207.116C468.735 207.402 467.528 207.527 466.362 207.476C466.15 207.464 465.952 207.464 465.74 207.439C465.318 207.415 464.907 207.352 464.511 207.278C464.324 207.24 464.138 207.203 463.963 207.154C463.764 207.104 463.578 207.055 463.404 206.992C462.858 206.818 462.336 206.607 461.876 206.334C461.38 206.048 460.97 205.726 460.659 205.378C460.548 205.266 460.448 205.142 460.374 205.016C460.311 204.93 460.262 204.843 460.212 204.756C460.175 204.682 460.138 204.619 460.114 204.544C460.1 204.532 460.088 204.52 460.088 204.507C460.411 203.712 461.119 202.967 462.199 202.334L466.362 199.923L471.628 196.88C474.598 195.166 479.268 195.079 482.051 196.694C482.946 197.215 483.542 197.848 483.828 198.532C483.74 198.768 483.604 199.004 483.43 199.228ZM483.679 196.234C483.604 196.086 483.506 195.936 483.394 195.799C483.07 195.39 482.623 195.016 482.051 194.682C479.268 193.079 474.598 193.166 471.628 194.88L462.199 200.322C461.43 200.768 460.846 201.278 460.46 201.824C460.274 202.098 460.138 202.371 460.038 202.644C459.952 202.943 459.902 203.228 459.902 203.527V203.887C459.902 204.395 459.89 205.254 459.89 205.514C459.89 206.558 460.535 207.576 461.876 208.346C463.107 209.055 464.71 209.427 466.362 209.478C468.46 209.551 470.647 209.104 472.299 208.147L481.716 202.719C483.268 201.824 484.026 200.656 484.014 199.526C484.014 199.203 484.039 197.862 484.039 197.514C484.039 197.079 483.927 196.656 483.679 196.234Z" fill="black"/>
</g>
</g>
<mask id="mask18_2_1564" style="mask-type:luminance" maskUnits="userSpaceOnUse" x="459" y="193" width="26" height="12">
<path d="M459.876 193.535H484.038V204.507H459.876V193.535Z" fill="white"/>
</mask>
<g mask="url(#mask18_2_1564)">
<g opacity="0.699997">
<path d="M484.039 197.514C484.039 197.848 483.977 198.198 483.829 198.532C483.542 197.848 482.946 197.215 482.051 196.694C479.269 195.079 474.598 195.166 471.629 196.88L466.362 199.924L462.199 202.334C461.119 202.967 460.411 203.712 460.089 204.508C460.002 204.31 459.939 204.098 459.901 203.887V203.824C459.841 203.439 459.89 203.042 460.038 202.644C460.125 202.359 460.274 202.086 460.461 201.824C460.845 201.278 461.43 200.768 462.199 200.322L471.629 194.88C474.598 193.166 479.269 193.079 482.051 194.682C482.623 195.016 483.07 195.39 483.394 195.799C483.506 195.936 483.605 196.086 483.678 196.235C483.927 196.656 484.039 197.079 484.039 197.514Z" fill="#27DEBF"/>
</g>
</g>
<mask id="mask19_2_1564" style="mask-type:luminance" maskUnits="userSpaceOnUse" x="459" y="193" width="26" height="12">
<path d="M459.876 193.535H484.038V204.507H459.876V193.535Z" fill="white"/>
</mask>
<g mask="url(#mask19_2_1564)">
<g opacity="0.699997">
<path d="M484.039 197.514C484.039 197.848 483.977 198.198 483.829 198.532C483.542 197.848 482.946 197.215 482.051 196.694C479.269 195.079 474.598 195.166 471.629 196.88L466.362 199.924L462.199 202.334C461.119 202.967 460.411 203.712 460.089 204.508C460.002 204.31 459.939 204.098 459.901 203.887V203.824C459.841 203.439 459.89 203.042 460.038 202.644C460.125 202.359 460.274 202.086 460.461 201.824C460.845 201.278 461.43 200.768 462.199 200.322L471.629 194.88C474.598 193.166 479.269 193.079 482.051 194.682C482.623 195.016 483.07 195.39 483.394 195.799C483.506 195.936 483.605 196.086 483.678 196.235C483.927 196.656 484.039 197.079 484.039 197.514Z" fill="#27DEBF"/>
</g>
</g>
<path d="M195.712 93.5143L185.86 87.8263C184.872 87.2556 183.27 87.2556 182.282 87.8263L172.432 93.5143C171.947 93.7943 171.686 94.1569 171.69 94.5236C171.691 94.6329 171.691 95.2916 171.69 95.4009C171.686 95.7676 171.947 96.1303 172.432 96.4116L182.283 102.098C183.271 102.669 184.874 102.669 185.862 102.098L195.712 96.4116C196.188 96.1369 196.448 95.7756 196.454 95.4169C196.455 95.2996 196.454 94.6209 196.454 94.5089C196.454 94.1449 196.194 93.7916 195.712 93.5143Z" fill="#263238"/>
<path d="M172.432 95.58L182.283 101.268C183.271 101.839 184.874 101.839 185.862 101.268L195.712 95.58C196.7 95.0107 196.7 94.0853 195.712 93.5147L185.86 87.8267C184.872 87.256 183.27 87.256 182.282 87.8267L172.432 93.5133C171.443 94.084 171.443 95.0093 172.432 95.58Z" fill="#37474F"/>
<path d="M174.802 94.2207L183.802 89.0207C184.198 88.7913 184.838 88.7913 185.234 89.0193L185.725 89.3033C186.121 89.53 186.121 89.9007 185.725 90.1287L176.722 95.33C176.327 95.558 175.686 95.558 175.291 95.33L174.802 95.0473C174.407 94.8193 174.407 94.4487 174.802 94.2207Z" fill="#27DEBF"/>
<path d="M178.604 96.5924L187.604 91.3924C187.999 91.1644 188.64 91.1631 189.036 91.3924L189.527 91.6751C189.923 91.9031 189.923 92.2724 189.527 92.5017L180.524 97.7017C180.129 97.9297 179.488 97.9297 179.092 97.7017L178.604 97.4191C178.209 97.1911 178.209 96.8204 178.604 96.5924Z" fill="#27DEBF"/>
<path d="M182.406 98.9648L191.406 93.7648C191.802 93.5355 192.443 93.5355 192.838 93.7635L193.328 94.0475C193.724 94.2741 193.724 94.6448 193.33 94.8728L184.326 100.074C183.931 100.301 183.29 100.302 182.895 100.074L182.406 99.7915C182.011 99.5635 182.011 99.1928 182.406 98.9648Z" fill="#27DEBF"/>
<path d="M146.501 98.8573L146.481 98.8453C145.74 98.4213 144.8 98.356 143.757 98.632C143.249 98.768 142.724 98.9586 142.172 99.2773L136.055 102.807L145.356 108.176L151.465 104.649C153.149 103.676 154.673 103.584 155.779 104.219L146.501 98.8573Z" fill="#27DEBF"/>
<mask id="mask20_2_1564" style="mask-type:luminance" maskUnits="userSpaceOnUse" x="136" y="98" width="20" height="11">
<path d="M136.055 98.4659H155.779V108.177H136.055V98.4659Z" fill="white"/>
</mask>
<g mask="url(#mask20_2_1564)">
<g opacity="0.5">
<path d="M146.501 98.8573L146.481 98.8453C145.74 98.4213 144.8 98.356 143.757 98.632C143.249 98.768 142.724 98.9586 142.172 99.2773L136.055 102.807L145.356 108.176L151.465 104.649C153.149 103.676 154.673 103.584 155.779 104.219L146.501 98.8573Z" fill="white"/>
</g>
</g>
<path d="M172.722 95.7498L156.917 104.875L156.655 105.026C157.227 105.77 157.575 106.822 157.575 108.177C157.575 110.927 159.043 112.438 161.165 112.377C162.047 112.351 163.03 112.082 164.087 111.471L182.015 101.121L172.722 95.7498Z" fill="#27DEBF"/>
<mask id="mask21_2_1564" style="mask-type:luminance" maskUnits="userSpaceOnUse" x="156" y="95" width="27" height="18">
<path d="M156.655 95.7499H182.014V112.378H156.655V95.7499Z" fill="white"/>
</mask>
<g mask="url(#mask21_2_1564)">
<g opacity="0.5">
<path d="M172.722 95.7498L156.917 104.875L156.655 105.026C157.227 105.77 157.575 106.822 157.575 108.177C157.575 110.927 159.043 112.438 161.165 112.377C162.047 112.351 163.03 112.082 164.087 111.471L182.015 101.121L172.722 95.7498Z" fill="white"/>
</g>
</g>
<path d="M136.055 102.807V103.627L145.356 108.997V108.177L136.055 102.807Z" fill="#27DEBF"/>
<mask id="mask22_2_1564" style="mask-type:luminance" maskUnits="userSpaceOnUse" x="136" y="102" width="10" height="7">
<path d="M136.055 102.807H145.355V108.997H136.055V102.807Z" fill="white"/>
</mask>
<g mask="url(#mask22_2_1564)">
<g opacity="0.149994">
<path d="M136.055 102.807V103.627L145.356 108.997V108.177L136.055 102.807Z" fill="black"/>
</g>
</g>
<path d="M182.014 101.122V101.934L164.445 112.088C163.242 112.78 162.085 113.125 161.032 113.125C160.294 113.125 159.602 112.945 159.016 112.614L158.956 112.584C157.602 111.772 156.865 110.222 156.865 108.177C156.865 106.552 156.353 105.364 155.436 104.838C154.504 104.296 153.225 104.446 151.812 105.258L149.044 106.853L145.704 108.793L145.358 109.004V108.177C145.358 108.177 146.546 107.485 148.337 106.448C149.254 105.936 150.321 105.304 151.465 104.642C154.834 102.702 157.572 104.281 157.572 108.177C157.572 112.073 160.489 113.546 164.085 111.47L182.014 101.122Z" fill="#27DEBF"/>
<path d="M158.956 112.584L149.044 106.853L151.812 105.259C153.225 104.447 154.504 104.296 155.436 104.837C156.353 105.364 156.865 106.552 156.865 108.177C156.865 110.223 157.602 111.772 158.956 112.584Z" fill="#27DEBF"/>
<mask id="mask23_2_1564" style="mask-type:luminance" maskUnits="userSpaceOnUse" x="149" y="104" width="10" height="9">
<path d="M149.044 104.518H158.956V112.585H149.044V104.518Z" fill="white"/>
</mask>
<g mask="url(#mask23_2_1564)">
<g opacity="0.300003">
<path d="M158.956 112.584L149.044 106.853L151.812 105.259C153.225 104.447 154.504 104.296 155.436 104.837C156.353 105.364 156.865 106.552 156.865 108.177C156.865 110.223 157.602 111.772 158.956 112.584Z" fill="black"/>
</g>
</g>
<path d="M148.302 109.813L133.173 101.082C132.185 100.512 130.582 100.512 129.594 101.082L124.717 103.896C124.23 104.176 123.97 104.54 123.974 104.906C123.975 105.014 123.975 105.674 123.974 105.782C123.97 106.149 124.23 106.513 124.717 106.793L139.843 115.524C140.831 116.094 142.434 116.094 143.422 115.524L148.302 112.71C148.778 112.436 149.038 112.074 149.043 111.716C149.045 111.598 149.043 110.92 149.043 110.808C149.043 110.445 148.783 110.09 148.302 109.813Z" fill="#263238"/>
<path d="M124.716 105.962L139.844 114.693C140.832 115.263 142.435 115.263 143.423 114.693L148.302 111.879C149.291 111.309 149.291 110.383 148.302 109.813L133.174 101.082C132.186 100.511 130.583 100.511 129.595 101.082L124.716 103.895C123.728 104.466 123.728 105.391 124.716 105.962Z" fill="#37474F"/>
<path d="M126.43 104.399L130.46 102.072C130.854 101.844 131.496 101.844 131.892 102.072L132.382 102.355C132.778 102.583 132.778 102.954 132.382 103.182L128.35 105.508C127.956 105.736 127.314 105.736 126.92 105.508L126.43 105.226C126.036 104.998 126.036 104.627 126.43 104.399Z" fill="#27DEBF"/>
<path d="M129.982 106.451L134.012 104.124C134.406 103.896 135.048 103.895 135.444 104.124L135.934 104.407C136.33 104.635 136.33 105.006 135.934 105.234L131.902 107.56C131.508 107.787 130.866 107.788 130.472 107.56L129.982 107.278C129.588 107.05 129.588 106.679 129.982 106.451Z" fill="#27DEBF"/>
<path d="M133.535 108.503L137.564 106.176C137.96 105.948 138.6 105.948 138.996 106.176L139.487 106.459C139.883 106.687 139.883 107.057 139.487 107.285L135.455 109.612C135.06 109.84 134.419 109.84 134.024 109.612L133.535 109.329C133.14 109.101 133.14 108.731 133.535 108.503Z" fill="#27DEBF"/>
<path d="M137.087 110.554L141.116 108.227C141.512 107.999 142.152 107.999 142.548 108.227L143.039 108.51C143.435 108.738 143.435 109.109 143.039 109.337L139.007 111.663C138.612 111.891 137.971 111.891 137.576 111.663L137.087 111.381C136.692 111.153 136.692 110.782 137.087 110.554Z" fill="#27DEBF"/>
<path d="M140.639 112.606L144.667 110.279C145.063 110.051 145.705 110.05 146.101 110.279L146.591 110.562C146.986 110.79 146.986 111.161 146.591 111.389L142.559 113.715C142.165 113.942 141.523 113.943 141.127 113.715L140.639 113.433C140.243 113.205 140.243 112.834 140.639 112.606Z" fill="#27DEBF"/>
<path d="M253.753 245.683C259.735 242.23 264.585 245.03 264.585 251.936C264.585 258.846 259.735 267.244 253.753 270.699C247.77 274.154 242.921 271.352 242.921 264.444C242.921 257.538 247.77 249.138 253.753 245.683Z" fill="#E0E0E0"/>
<path d="M140.175 164.27L140.162 164.294C137.015 162.094 132.479 162.173 127.418 165.095C117.918 170.579 110.218 183.918 110.218 194.887C110.218 200.947 112.575 205.003 116.282 206.507L116.278 206.515C124.162 210.937 133.884 206.667 133.884 206.667L147.671 179.255C147.671 171.927 144.782 167.038 140.175 164.27Z" fill="#1E1E1E"/>
<mask id="mask24_2_1564" style="mask-type:luminance" maskUnits="userSpaceOnUse" x="110" y="184" width="29" height="25">
<path d="M110.217 184.648H138.34V208.523H110.217V184.648Z" fill="white"/>
</mask>
<g mask="url(#mask24_2_1564)">
<g opacity="0.100006">
<path d="M130.151 193.081C118.407 193.496 112.222 184.745 112.15 184.648C110.922 188.091 110.218 191.595 110.218 194.887C110.218 200.948 112.575 205.004 116.282 206.507L116.278 206.515C122.878 210.216 130.743 207.835 133.138 206.959C133.38 206.804 133.627 206.689 133.884 206.668L138.34 197.809L130.151 193.081Z" fill="black"/>
</g>
</g>
<path d="M288.057 268.187C288.057 268.187 264.006 246.413 261.469 244.957C258.957 243.516 149.893 180.539 147.678 179.26C147.675 179.259 147.671 179.256 147.671 179.256C147.654 179.245 147.626 179.229 147.626 179.229L147.623 179.233C145.667 178.132 142.981 178.304 140.015 180.016C134.033 183.471 129.183 191.871 129.183 198.779C129.183 202.225 130.391 204.649 132.346 205.784L132.345 205.785L132.355 205.791C132.826 206.063 241.422 268.779 246.109 271.465C250.805 274.159 279.403 282.828 279.403 282.828C280.482 283.384 281.937 283.273 283.539 282.348C286.867 280.427 289.566 275.753 289.566 271.911C289.566 270.148 288.993 268.872 288.057 268.187Z" fill="#279CDE"/>
<mask id="mask25_2_1564" style="mask-type:luminance" maskUnits="userSpaceOnUse" x="242" y="244" width="48" height="40">
<path d="M242.921 244.205H289.565V283.166H242.921V244.205Z" fill="white"/>
</mask>
<g mask="url(#mask25_2_1564)">
<g opacity="0.100006">
<path d="M289.566 271.911C289.566 270.148 288.992 268.872 288.056 268.187C288.056 268.187 265.828 248.064 261.864 245.221C259.879 243.779 256.982 243.819 253.752 245.683C247.77 249.137 242.92 257.537 242.92 264.444C242.92 267.907 244.139 270.337 246.107 271.465L246.108 271.467C250.804 274.16 279.403 282.828 279.403 282.828C280.483 283.384 281.936 283.273 283.539 282.348C286.868 280.427 289.566 275.753 289.566 271.911Z" fill="black"/>
</g>
</g>
<path d="M191.936 240.197C189.97 239.068 188.756 236.638 188.756 233.18C188.756 226.272 193.605 217.872 199.588 214.418C202.578 212.692 205.286 212.528 207.246 213.66C207.246 213.66 213.526 216.204 233.944 226.921C254.361 237.637 250.621 238.697 250.621 238.697L249.148 237.854C247.188 236.722 244.48 236.886 241.489 238.613C235.506 242.066 230.657 250.466 230.657 257.374C230.657 260.829 231.869 263.256 233.829 264.388L235.797 265.518C235.797 265.518 233.133 266.378 219.073 258.19C205.013 250.002 191.936 240.197 191.936 240.197Z" fill="#1E1E1E"/>
<mask id="mask26_2_1564" style="mask-type:luminance" maskUnits="userSpaceOnUse" x="277" y="267" width="13" height="17">
<path d="M277.513 267.609H289.565V283.171H277.513V267.609Z" fill="white"/>
</mask>
<g mask="url(#mask26_2_1564)">
<g opacity="0.149994">
<path d="M277.514 278.869C277.514 275.026 280.212 270.353 283.54 268.432C286.868 266.51 289.566 268.068 289.566 271.91C289.566 275.754 286.868 280.426 283.54 282.348C280.212 284.269 277.514 282.712 277.514 278.869Z" fill="black"/>
</g>
</g>
<path d="M352.871 314.988C352.871 315.228 352.711 315.522 352.511 315.628C352.418 315.682 352.351 315.682 352.284 315.668V315.682C351.751 315.495 343.631 312.508 341.098 311.442C340.751 311.308 340.511 311.202 340.404 311.135L282.298 277.588C281.964 277.402 281.751 277.002 281.751 276.428C281.751 275.855 281.951 275.215 282.271 274.655C282.604 274.095 283.044 273.615 283.538 273.322C284.031 273.042 284.484 273.015 284.804 273.202L342.938 306.762C343.271 306.962 343.818 307.348 344.484 307.868C347.338 310.042 352.418 314.388 352.804 314.775L352.791 314.788C352.844 314.828 352.871 314.895 352.871 314.988Z" fill="#455A64"/>
<path d="M352.871 314.988C352.871 315.228 352.711 315.522 352.511 315.628C352.418 315.682 352.351 315.682 352.284 315.668V315.682C351.751 315.495 343.631 312.508 341.098 311.442C341.844 310.735 343.458 311.122 345.018 311.815C346.751 312.602 351.964 315.402 352.244 315.055C352.524 314.708 348.818 312.508 346.604 310.895C344.391 309.282 343.871 307.975 344.484 307.868C347.338 310.042 352.418 314.388 352.804 314.775L352.791 314.788C352.844 314.828 352.871 314.895 352.871 314.988Z" fill="#37474F"/>
<mask id="mask27_2_1564" style="mask-type:luminance" maskUnits="userSpaceOnUse" x="282" y="273" width="68" height="41">
<path d="M282.921 273.937H349.405V313.43H282.921V273.937Z" fill="white"/>
</mask>
<g mask="url(#mask27_2_1564)">
<g opacity="0.199997">
<path d="M284.172 273.937C284.172 273.937 342.096 307.225 342.949 307.868C343.805 308.511 343.719 309.675 347.684 312.193C351.404 314.556 348.533 313.285 344.38 310.469C343.423 309.821 343.132 308.475 342.061 307.868C337.224 305.123 282.921 275.247 282.921 275.247C282.921 275.247 283.485 274.104 284.172 273.937Z" fill="white"/>
</g>
</g>
</svg>
