<svg width="444" height="311" viewBox="0 0 444 311" fill="none" xmlns="http://www.w3.org/2000/svg">
<path d="M1.51888 197.54C1.51888 197.54 8.53221 201.59 23.1829 197.54C23.1829 197.54 129.914 259.16 136.92 263.207C143.928 267.252 174.834 272.588 174.834 272.588L234.41 306.984L245.542 310.806L246.871 310.111L239.826 303.858L180.25 269.46C180.25 269.46 164.002 253.826 158.586 250.699C153.168 247.571 44.8469 185.034 44.8469 185.034C44.8469 185.034 51.4402 176.33 44.8482 172.524C36.5709 169.398 -4.52245 192.259 1.51888 197.54Z" fill="#03628A"/>
<path d="M321.061 275.728L441.502 206.19C444.474 204.476 444.474 201.694 441.502 199.978L194.905 57.6051C191.933 55.8904 187.117 55.8904 184.146 57.6051L63.7038 127.144C60.7331 128.858 60.7331 131.64 63.7038 133.354L310.302 275.728C313.273 277.442 318.089 277.442 321.061 275.728Z" fill="#03628A"/>
<path d="M139.08 41.2408C138.893 41.4395 138.659 41.6262 138.372 41.7875L128.117 47.7182L120.788 51.9408L112.875 56.5128C111.657 57.2088 109.881 57.3702 108.515 56.9608C108.204 56.8862 107.917 56.7622 107.657 56.6128C107.445 56.4888 107.26 56.3515 107.123 56.2022C107.284 55.9915 107.533 55.8048 107.831 55.6302L108.515 55.2342L120.788 48.1528L128.117 43.9168L133.329 40.9062C134.807 40.0475 137.143 40.0115 138.533 40.8062C138.757 40.9302 138.944 41.0795 139.08 41.2288V41.2408ZM149.217 35.4275C149.068 35.5755 148.869 35.7248 148.633 35.8622C147.243 36.6688 144.981 36.6688 143.589 35.8622C143.353 35.7248 143.167 35.5755 143.005 35.4275C143.167 35.2662 143.353 35.1168 143.589 34.9795C144.981 34.1848 147.243 34.1848 148.633 34.9795C148.869 35.1168 149.068 35.2662 149.217 35.4275ZM191.249 4.94615C189.772 4.08882 187.821 3.66615 185.871 3.66615C183.92 3.66615 181.969 4.08882 180.492 4.94615L165.684 13.4928L150.056 22.5128L128.117 35.1835L120.788 39.4195L108.515 46.5008L87.1974 58.8115L60.0534 74.4768C59.8667 74.5888 59.6934 74.7008 59.532 74.8115C59.444 74.8742 59.3574 74.9355 59.2827 74.9982C59.1707 75.0848 59.072 75.1728 58.9854 75.2595C58.8734 75.3582 58.7734 75.4582 58.6867 75.5702C58.6747 75.5822 58.6627 75.5822 58.6627 75.5942C58.5867 75.6568 58.5254 75.7315 58.488 75.8062C58.4134 75.8928 58.3507 75.9915 58.2894 76.0915C58.276 76.1035 58.264 76.1168 58.264 76.1288C58.0027 76.5515 57.8547 76.9982 57.8414 77.4448V77.6062C57.8414 77.7435 57.8547 77.8795 57.88 78.0288C57.9907 78.7248 58.388 79.4075 59.084 80.0048C59.3574 80.2528 59.68 80.4768 60.0534 80.6875L74.8614 89.2355L77.3827 87.7808L87.1974 82.1168L108.515 69.8048L120.788 62.7248L128.117 58.4888L150.056 45.8288L165.684 36.7982L206.057 13.4928L191.249 4.94615Z" fill="#455A64"/>
<mask id="mask0_2_1564" style="mask-type:luminance" maskUnits="userSpaceOnUse" x="57" y="0" width="384" height="225">
<path d="M57.842 0.735162H440.066V224.349H57.842V0.735162Z" fill="white"/>
</mask>
<g mask="url(#mask0_2_1564)">
<g opacity="0.300003">
<path d="M107.831 55.6308L108.514 55.2334L120.789 48.1535L128.118 43.9161L133.323 40.9095C134.801 40.0521 137.137 40.0161 138.527 40.8108C138.751 40.9348 138.938 41.0841 139.074 41.2335V41.2455C138.887 41.4441 138.653 41.6308 138.366 41.7921L128.118 47.7175L120.789 51.9415L112.875 56.5134C111.658 57.2094 109.881 57.3708 108.514 56.9601C108.203 56.8854 107.918 56.7614 107.657 56.6121C107.446 56.4881 107.259 56.3521 107.123 56.2028C107.285 55.9921 107.533 55.8054 107.831 55.6308ZM143.583 34.9841C144.975 34.1895 147.237 34.1895 148.627 34.9841C148.863 35.1215 149.062 35.2695 149.211 35.4321C149.062 35.5801 148.863 35.7295 148.627 35.8668C147.237 36.6735 144.975 36.6735 143.583 35.8668C143.347 35.7295 143.162 35.5801 142.999 35.4321C143.162 35.2695 143.347 35.1215 143.583 34.9841ZM354.089 184.508C354.411 183.713 355.118 182.967 356.199 182.333L360.362 179.924L365.629 176.88C368.598 175.165 373.269 175.079 376.051 176.693C376.945 177.215 377.542 177.849 377.829 178.532C377.505 179.327 376.809 180.073 375.717 180.707L366.299 186.148C364.647 187.104 362.447 187.551 360.362 187.476C358.71 187.427 357.107 187.043 355.877 186.333C354.97 185.812 354.374 185.179 354.089 184.508ZM439.93 146.653C439.83 146.38 439.693 146.119 439.519 145.857C439.159 145.324 438.601 144.827 437.854 144.392L423.047 135.845L360.362 99.6574L325.167 79.3334L191.25 2.02679C189.773 1.16945 187.822 0.734775 185.871 0.734775C183.921 0.734775 181.97 1.16945 180.493 2.02679L165.685 10.5735L150.055 19.6041L128.118 32.2641L120.789 36.5001L108.514 43.5801L87.1967 55.8921L60.054 71.5574C59.866 71.6694 59.6927 71.7801 59.5314 71.8921C59.37 72.0041 59.2207 72.1294 59.0834 72.2401C58.9474 72.3641 58.8234 72.4894 58.7114 72.6134C58.6007 72.7374 58.5007 72.8734 58.4007 72.9974C58.4007 72.9974 58.3887 72.9974 58.3887 73.0108C58.314 73.1094 58.2647 73.2094 58.202 73.3081C58.1647 73.3708 58.1274 73.4454 58.1034 73.5081C58.09 73.5321 58.078 73.5454 58.066 73.5694C58.054 73.6068 58.0407 73.6308 58.0274 73.6694C58.0154 73.7068 58.0034 73.7428 57.9914 73.7681C57.954 73.8548 57.9287 73.9414 57.9167 74.0294C57.9047 74.0908 57.8914 74.1534 57.8794 74.2148C57.8554 74.3641 57.842 74.5014 57.842 74.6374V77.6068C57.842 77.7428 57.8554 77.8801 57.8794 78.0294C57.9047 78.1654 57.9287 78.3028 57.978 78.4388C58.2514 79.2708 58.9474 80.0534 60.054 80.6868L291.837 214.519H291.85L306.646 223.065C308.135 223.923 310.086 224.345 312.025 224.345C312.373 224.357 312.733 224.332 313.081 224.295C313.229 224.295 313.39 224.283 313.541 224.257C313.814 224.233 314.099 224.196 314.373 224.133C314.745 224.072 315.106 223.984 315.453 223.873C316.162 223.673 316.831 223.4 317.415 223.065L437.854 153.523C438.601 153.088 439.147 152.603 439.519 152.069C439.594 151.957 439.667 151.857 439.73 151.745C439.73 151.721 439.742 151.696 439.769 151.671V151.659C439.842 151.509 439.891 151.373 439.942 151.224C439.979 151.1 440.015 150.964 440.029 150.839C440.054 150.703 440.066 150.553 440.066 150.416V150.243C440.054 149.647 440.054 148.292 440.066 147.684V147.659V147.485C440.066 147.199 440.015 146.925 439.93 146.653Z" fill="#27DEBF"/>
</g>
</g>
<mask id="mask1_2_1564" style="mask-type:luminance" maskUnits="userSpaceOnUse" x="57" y="0" width="384" height="222">
<path d="M57.842 0.735199H440.066V221.438H57.842V0.735199Z" fill="white"/>
</mask>
<g mask="url(#mask1_2_1564)">
<g opacity="0.100006">
<path d="M375.716 180.706L366.3 186.148C364.647 187.104 362.448 187.552 360.361 187.477C358.709 187.428 357.107 187.042 355.876 186.334C354.97 185.813 354.373 185.178 354.088 184.508C354.411 183.713 355.119 182.968 356.199 182.334L360.361 179.924L365.63 176.88C368.598 175.166 373.268 175.078 376.051 176.694C376.946 177.216 377.542 177.849 377.828 178.533C377.506 179.328 376.808 180.073 375.716 180.706ZM148.628 35.8663C147.236 36.6743 144.975 36.6743 143.584 35.8663C143.348 35.7303 143.161 35.581 143 35.4316C143.161 35.2703 143.348 35.121 143.584 34.9836C144.975 34.189 147.236 34.189 148.628 34.9836C148.864 35.121 149.063 35.2703 149.212 35.4316C149.063 35.581 148.864 35.7303 148.628 35.8663ZM139.075 41.245C138.888 41.445 138.652 41.6303 138.367 41.7916L128.117 47.7183L120.788 51.941L112.875 56.513C111.658 57.209 109.881 57.3703 108.515 56.9596C108.204 56.8863 107.917 56.7623 107.657 56.613C107.445 56.4876 107.26 56.3516 107.123 56.2023C107.284 55.9916 107.533 55.805 107.831 55.6303L108.515 55.2343L120.788 48.153L128.117 43.917L133.323 40.9103C134.8 40.053 137.136 40.0156 138.528 40.8103C138.751 40.9343 138.939 41.0836 139.075 41.233V41.245ZM439.93 146.653C439.843 146.38 439.706 146.118 439.52 145.858C439.159 145.324 438.6 144.826 437.855 144.392L423.047 135.845L360.361 99.657L325.168 79.3343L191.249 2.02632C189.772 1.17032 187.821 0.734307 185.871 0.734307C183.92 0.734307 181.97 1.17032 180.492 2.02632L165.684 10.573L150.056 19.605L128.117 32.2636L120.788 36.4996L108.515 43.581L87.1975 55.8916L60.0535 71.557C59.8668 71.669 59.6935 71.781 59.5322 71.893C59.3695 72.005 59.2215 72.129 59.0842 72.2396C58.9468 72.365 58.8242 72.489 58.7122 72.613C58.6002 72.737 58.5002 72.873 58.4015 72.9983C58.4015 72.9983 58.3882 72.9983 58.3882 73.0103C58.3135 73.1103 58.2642 73.209 58.2028 73.309C58.1655 73.3716 58.1282 73.445 58.1028 73.5076C58.0908 73.533 58.0775 73.545 58.0655 73.569C58.0535 73.6063 58.0415 73.6316 58.0282 73.669C58.0162 73.7063 58.0028 73.7436 57.9908 73.7676C57.9535 73.8556 57.9295 73.9423 57.9162 74.029C57.9042 74.0916 57.8922 74.153 57.8802 74.2156C57.8548 74.365 57.8415 74.501 57.8415 74.6383V74.849C57.8415 74.9236 57.8548 75.0116 57.8668 75.085C57.8668 75.1103 57.8802 75.1343 57.8922 75.1596C57.8922 75.185 57.8922 75.2223 57.9042 75.2596C57.9042 75.309 57.9295 75.3716 57.9415 75.421C57.9535 75.433 57.9535 75.457 57.9668 75.4823C57.9668 75.4823 57.9668 75.4956 57.9788 75.5076C58.0028 75.5823 58.0282 75.657 58.0655 75.7316C58.1282 75.893 58.2148 76.0543 58.3268 76.2156C58.3882 76.3156 58.4642 76.4023 58.5255 76.501C58.5868 76.589 58.6615 76.6756 58.7362 76.7503C58.7988 76.8236 58.8602 76.8863 58.9348 76.949C58.9468 76.961 58.9602 76.973 58.9855 76.985C59.0348 77.0356 59.1095 77.097 59.1708 77.1476C59.4322 77.3716 59.7175 77.5823 60.0535 77.7676L291.851 211.598L294.371 213.053L306.645 220.146C306.832 220.258 307.029 220.357 307.229 220.444C307.279 220.469 307.328 220.493 307.391 220.518C307.466 220.556 307.552 220.593 307.639 220.618C307.664 220.642 307.688 220.642 307.714 220.656C307.95 220.754 308.198 220.842 308.447 220.916C308.471 220.929 308.484 220.929 308.496 220.929C308.783 221.016 309.056 221.09 309.341 221.14C309.353 221.152 309.379 221.165 309.404 221.165L309.627 221.202C309.912 221.264 310.211 221.301 310.51 221.338C310.632 221.364 310.744 221.376 310.868 221.376C310.994 221.388 311.105 221.401 311.229 221.401C311.489 221.426 311.763 221.438 312.024 221.438C313.975 221.438 315.912 221.004 317.404 220.146L325.168 215.661L360.361 195.35L437.855 150.604C438.028 150.504 438.201 150.392 438.352 150.28C438.464 150.206 438.576 150.13 438.675 150.032C438.774 149.957 438.873 149.882 438.961 149.784C439.072 149.684 439.184 149.572 439.271 149.46C439.32 149.424 439.358 149.373 439.383 149.324C439.482 149.212 439.57 149.088 439.643 148.964C439.706 148.852 439.768 148.752 439.804 148.641C439.855 148.553 439.892 148.454 439.916 148.368C439.955 148.292 439.979 148.218 439.991 148.13C440.004 148.081 440.016 148.02 440.028 147.957C440.04 147.87 440.054 147.784 440.067 147.684V147.658V147.485C440.067 147.2 440.016 146.926 439.93 146.653Z" fill="#27DEBF"/>
</g>
</g>
<mask id="mask2_2_1564" style="mask-type:luminance" maskUnits="userSpaceOnUse" x="57" y="74" width="384" height="151">
<path d="M57.842 74.7992H440.066V224.351H57.842V74.7992Z" fill="white"/>
</mask>
<g mask="url(#mask2_2_1564)">
<g opacity="0.199997">
<path d="M440.066 150.417C440.066 151.547 439.345 152.666 437.854 153.523L317.416 223.065C314.434 224.779 309.626 224.779 306.646 223.065L60.0531 80.6872C58.5744 79.8432 57.8424 78.7245 57.8424 77.6072V74.7992C57.8918 75.8805 58.6238 76.9485 60.0531 77.7685L306.646 220.146C309.626 221.861 314.434 221.861 317.404 220.146L437.854 150.603C439.27 149.783 440.004 148.739 440.066 147.659C440.053 148.33 440.053 149.97 440.066 150.417Z" fill="black"/>
</g>
</g>
<mask id="mask3_2_1564" style="mask-type:luminance" maskUnits="userSpaceOnUse" x="153" y="10" width="13" height="129">
<path d="M153.37 10.5725H165.689V138.762H153.37V10.5725Z" fill="white"/>
</mask>
<g mask="url(#mask3_2_1564)">
<g opacity="0.300003">
<path d="M165.689 10.5728L153.37 17.6861V131.647L165.689 138.762V10.5728Z" fill="white"/>
</g>
</g>
<mask id="mask4_2_1564" style="mask-type:luminance" maskUnits="userSpaceOnUse" x="172" y="1" width="9" height="147">
<path d="M172.762 1.98455H180.58V147.359H172.762V1.98455Z" fill="white"/>
</mask>
<g mask="url(#mask4_2_1564)">
<g opacity="0.300003">
<path d="M180.579 1.98495C180.552 1.99962 180.521 2.01029 180.496 2.02495L172.763 6.48895V142.846L180.579 147.358V1.98495Z" fill="white"/>
</g>
</g>
<mask id="mask5_2_1564" style="mask-type:luminance" maskUnits="userSpaceOnUse" x="239" y="29" width="36" height="173">
<path d="M239.244 29.7312H274.44V201.55H239.244V29.7312Z" fill="white"/>
</mask>
<g mask="url(#mask5_2_1564)">
<g opacity="0.300003">
<path d="M274.44 50.052L239.244 29.732V181.229L274.44 201.549V50.052Z" fill="white"/>
</g>
</g>
<mask id="mask6_2_1564" style="mask-type:luminance" maskUnits="userSpaceOnUse" x="87" y="43" width="22" height="63">
<path d="M87.197 43.5805H108.514V105.745H87.197V43.5805Z" fill="white"/>
</mask>
<g mask="url(#mask6_2_1564)">
<g opacity="0.300003">
<path d="M106.663 55.1965C106.663 55.5445 106.813 55.9045 107.123 56.2019C107.259 56.3512 107.446 56.4885 107.657 56.6125C107.918 56.7619 108.203 56.8859 108.514 56.9605V105.745L87.1967 93.4459V55.8912L108.514 43.5805V53.2085L107.831 53.6059C107.049 54.0539 106.663 54.6379 106.663 55.1965Z" fill="white"/>
</g>
</g>
<mask id="mask7_2_1564" style="mask-type:luminance" maskUnits="userSpaceOnUse" x="120" y="32" width="9" height="15">
<path d="M120.788 32.2632H128.118V46.1152H120.788V32.2632Z" fill="white"/>
</mask>
<g mask="url(#mask7_2_1564)">
<g opacity="0.300003">
<path d="M128.118 32.2636V41.8783L120.789 46.1156V36.4996L128.118 32.2636Z" fill="white"/>
</g>
</g>
<mask id="mask8_2_1564" style="mask-type:luminance" maskUnits="userSpaceOnUse" x="120" y="47" width="9" height="71">
<path d="M120.788 47.7179H128.118V117.074H120.788V47.7179Z" fill="white"/>
</mask>
<g mask="url(#mask8_2_1564)">
<g opacity="0.300003">
<path d="M120.788 51.9413L128.118 47.7187V117.075L120.788 112.837V51.9413Z" fill="white"/>
</g>
</g>
<mask id="mask9_2_1564" style="mask-type:luminance" maskUnits="userSpaceOnUse" x="387" y="115" width="17" height="65">
<path d="M387.882 115.549H403.516V179.459H387.882V115.549Z" fill="white"/>
</mask>
<g mask="url(#mask9_2_1564)">
<g opacity="0.300003">
<path d="M403.517 124.574L387.882 115.549V179.459L403.517 170.433V124.574Z" fill="white"/>
</g>
</g>
<mask id="mask10_2_1564" style="mask-type:luminance" maskUnits="userSpaceOnUse" x="325" y="79" width="36" height="137">
<path d="M325.168 79.3339H360.361V215.674H325.168V79.3339Z" fill="white"/>
</mask>
<g mask="url(#mask10_2_1564)">
<g opacity="0.300003">
<path d="M354.038 182.644C353.89 183.042 353.84 183.439 353.9 183.824V183.887C353.939 184.098 354.002 184.31 354.088 184.507C354.374 185.179 354.97 185.812 355.876 186.334C357.107 187.042 358.71 187.427 360.362 187.476V195.35L325.168 215.674V79.3337L360.362 99.6577V177.923L356.199 180.322C355.43 180.768 354.844 181.278 354.46 181.824C354.274 182.086 354.124 182.359 354.038 182.644Z" fill="white"/>
</g>
</g>
<mask id="mask11_2_1564" style="mask-type:luminance" maskUnits="userSpaceOnUse" x="410" y="128" width="9" height="39">
<path d="M410.59 128.659H418.406V166.349H410.59V128.659Z" fill="white"/>
</mask>
<g mask="url(#mask11_2_1564)">
<g opacity="0.300003">
<path d="M418.406 133.171L410.59 128.659V166.349L418.406 161.837V133.171Z" fill="white"/>
</g>
</g>
<mask id="mask12_2_1564" style="mask-type:luminance" maskUnits="userSpaceOnUse" x="217" y="17" width="9" height="157">
<path d="M217.29 17.0579H225.108V173.067H217.29V17.0579Z" fill="white"/>
</mask>
<g mask="url(#mask12_2_1564)">
<g opacity="0.300003">
<path d="M217.291 168.555L225.107 173.068V21.5707L217.291 17.0573V168.555Z" fill="white"/>
</g>
</g>
<mask id="mask13_2_1564" style="mask-type:luminance" maskUnits="userSpaceOnUse" x="292" y="60" width="9" height="157">
<path d="M292.981 60.7566H300.797V216.767H292.981V60.7566Z" fill="white"/>
</mask>
<g mask="url(#mask13_2_1564)">
<g opacity="0.300003">
<path d="M300.797 65.2695L292.981 60.7562V212.253L300.797 216.767V65.2695Z" fill="white"/>
</g>
</g>
<path d="M440.066 150.417C440.053 149.97 440.053 148.33 440.066 147.659C440.004 148.739 439.27 149.783 437.854 150.603L317.404 220.146C314.434 221.861 309.626 221.861 306.646 220.146L291.846 211.601L291.844 214.515L291.845 214.519L306.646 223.065C309.626 224.779 314.434 224.779 317.416 223.065L437.854 153.523C439.345 152.666 440.066 151.547 440.066 150.417Z" fill="#455A64"/>
<path d="M312.03 221.432C310.085 221.432 308.137 221.004 306.646 220.146L291.846 211.601L291.843 214.516L291.845 214.52L306.646 223.065C308.135 223.922 310.083 224.35 312.03 224.35V221.432Z" fill="#37474F"/>
<path d="M57.8418 74.7995V77.6061C57.8418 78.7248 58.5751 79.8435 60.0538 80.6875L74.8538 89.2328V86.3221C74.8538 86.3221 74.8338 86.3061 74.8218 86.2955L60.0538 77.7688C58.6244 76.9488 57.8924 75.8808 57.8418 74.7995Z" fill="#37474F"/>
<mask id="mask14_2_1564" style="mask-type:luminance" maskUnits="userSpaceOnUse" x="106" y="32" width="44" height="28">
<path d="M106.664 32.3499H149.665V59.2205H106.664V32.3499Z" fill="white"/>
</mask>
<g mask="url(#mask14_2_1564)">
<g opacity="0.199997">
<path d="M139.08 41.2408C138.893 41.4395 138.659 41.6262 138.372 41.7875L128.117 47.7182L120.788 51.9408L112.875 56.5128C111.657 57.2088 109.881 57.3701 108.515 56.9608C108.204 56.8861 107.917 56.7621 107.657 56.6128C107.445 56.4888 107.26 56.3515 107.123 56.2021C107.284 55.9915 107.533 55.8048 107.831 55.6301L108.515 55.2341L120.788 48.1528L128.117 43.9168L133.329 40.9062C134.807 40.0475 137.143 40.0115 138.533 40.8062C138.757 40.9302 138.944 41.0795 139.08 41.2288V41.2408ZM139.527 40.1728C139.527 39.6635 139.204 39.1542 138.533 38.7808C137.143 37.9742 134.807 38.0115 133.329 38.8688L128.117 41.8795L120.788 46.1155L108.515 53.2088L107.831 53.6062C107.049 54.0528 106.664 54.6248 106.664 55.1968C106.676 55.5448 106.664 56.8981 106.676 57.2581C106.676 57.7688 107.011 58.2648 107.657 58.6501C107.917 58.7981 108.204 58.9101 108.515 58.9981C109.881 59.4075 111.657 59.2462 112.875 58.5502L120.788 53.9795L128.117 49.7555L138.372 43.8248C139.131 43.3902 139.515 42.8182 139.527 42.2715C139.54 41.8995 139.527 40.5328 139.527 40.1728Z" fill="black"/>
<path d="M148.633 35.8619C147.243 36.6685 144.981 36.6685 143.589 35.8619C143.353 35.7245 143.167 35.5765 143.005 35.4272C143.167 35.2659 143.353 35.1165 143.589 34.9792C144.981 34.1845 147.243 34.1845 148.633 34.9792C148.869 35.1165 149.068 35.2659 149.217 35.4272C149.068 35.5765 148.869 35.7245 148.633 35.8619ZM148.633 32.9552C147.243 32.1472 144.981 32.1472 143.589 32.9552C142.881 33.3525 142.547 33.8872 142.547 34.4085C142.559 34.7565 142.547 36.0845 142.547 36.4459C142.547 36.9672 142.881 37.4899 143.589 37.8992C144.981 38.7072 147.243 38.7072 148.633 37.8992C149.328 37.4899 149.677 36.9672 149.664 36.4459V34.4085C149.664 33.8739 149.328 33.3525 148.633 32.9552Z" fill="black"/>
</g>
</g>
<mask id="mask15_2_1564" style="mask-type:luminance" maskUnits="userSpaceOnUse" x="106" y="32" width="44" height="25">
<path d="M106.664 32.3499H149.665V56.2032H106.664V32.3499Z" fill="white"/>
</mask>
<g mask="url(#mask15_2_1564)">
<g opacity="0.300003">
<path d="M139.466 39.8124C139.44 39.6884 139.379 39.5631 139.279 39.4391C139.243 39.3777 139.192 39.3151 139.143 39.2657C139.092 39.2031 139.031 39.1417 138.968 39.0911C138.907 39.0417 138.844 38.9791 138.77 38.9297C138.695 38.8804 138.622 38.8311 138.534 38.7817C137.143 37.9737 134.807 38.0111 133.328 38.8684L107.831 53.6057C107.05 54.0537 106.663 54.6377 106.663 55.1964C106.663 55.5444 106.812 55.9044 107.123 56.2017C107.284 55.9911 107.534 55.8057 107.831 55.6311L108.515 55.2337L120.788 48.1524L128.118 43.9164L133.328 40.9057C134.807 40.0484 137.143 40.0111 138.534 40.8057C138.758 40.9297 138.944 41.0791 139.08 41.2284C139.379 40.9057 139.527 40.5457 139.527 40.1977C139.527 40.0724 139.515 39.9364 139.466 39.8124Z" fill="black"/>
<path d="M149.627 34.11C149.602 34.0113 149.578 33.9233 149.528 33.8247C149.367 33.5007 149.068 33.2033 148.634 32.9553C147.242 32.1473 144.982 32.1473 143.59 32.9553C143.466 33.0287 143.354 33.1047 143.255 33.166C143.143 33.266 143.043 33.3527 142.944 33.4513C142.882 33.526 142.82 33.6007 142.77 33.6753C142.72 33.762 142.683 33.8367 142.646 33.9233C142.571 34.0847 142.559 34.234 142.546 34.3953V34.4087V34.6073C142.596 34.8927 142.758 35.166 143.006 35.4273C143.167 35.266 143.354 35.1167 143.59 34.9793C144.982 34.1847 147.242 34.1847 148.634 34.9793C148.87 35.1167 149.056 35.2527 149.206 35.4273C149.466 35.166 149.615 34.8927 149.664 34.6073V34.3953C149.664 34.2967 149.652 34.21 149.627 34.11Z" fill="black"/>
</g>
</g>
<mask id="mask16_2_1564" style="mask-type:luminance" maskUnits="userSpaceOnUse" x="106" y="32" width="44" height="25">
<path d="M106.664 32.3499H149.665V56.2032H106.664V32.3499Z" fill="white"/>
</mask>
<g mask="url(#mask16_2_1564)">
<g opacity="0.699997">
<path d="M139.527 40.1972C139.527 40.5452 139.378 40.9052 139.081 41.2279C138.945 41.0799 138.757 40.9305 138.534 40.8065C137.142 40.0105 134.806 40.0479 133.329 40.9052L128.118 43.9172L120.789 48.1532L108.514 55.2332L107.831 55.6305C107.533 55.8052 107.285 55.9919 107.123 56.2025C106.813 55.9039 106.663 55.5439 106.663 55.1972C106.663 54.6372 107.049 54.0532 107.831 53.6065L133.329 38.8679C134.806 38.0105 137.142 37.9745 138.534 38.7812C138.621 38.8305 138.695 38.8812 138.77 38.9305C138.845 38.9799 138.906 39.0425 138.969 39.0919C139.03 39.1412 139.093 39.2039 139.142 39.2652C139.193 39.3145 139.242 39.3772 139.279 39.4399C139.366 39.5639 139.429 39.6879 139.466 39.8119C139.515 39.9372 139.527 40.0732 139.527 40.1972Z" fill="#27DEBF"/>
<path d="M149.665 34.3957V34.6077C149.614 34.8931 149.466 35.1664 149.205 35.4264C149.055 35.2531 148.87 35.1171 148.634 34.9797C147.242 34.1851 144.981 34.1851 143.59 34.9797C143.354 35.1171 143.167 35.2651 143.006 35.4264C142.757 35.1664 142.595 34.8931 142.546 34.6077V34.4077V34.3957C142.558 34.2344 142.571 34.0851 142.646 33.9237C142.683 33.8371 142.721 33.7624 142.77 33.6744C142.819 33.6011 142.882 33.5264 142.943 33.4517C143.043 33.3517 143.142 33.2651 143.254 33.1664C143.354 33.1037 143.466 33.0291 143.59 32.9544C144.981 32.1464 147.242 32.1464 148.634 32.9544C149.069 33.2024 149.366 33.5011 149.527 33.8251C149.578 33.9237 149.602 34.0104 149.627 34.1104C149.653 34.2091 149.665 34.2971 149.665 34.3957Z" fill="#27DEBF"/>
</g>
</g>
<mask id="mask17_2_1564" style="mask-type:luminance" maskUnits="userSpaceOnUse" x="353" y="173" width="26" height="17">
<path d="M353.889 173.535H378.038V189.485H353.889V173.535Z" fill="white"/>
</mask>
<g mask="url(#mask17_2_1564)">
<g opacity="0.199997">
<path d="M377.43 179.228C377.368 179.327 377.282 179.427 377.194 179.526C376.822 179.948 376.338 180.346 375.716 180.706L366.299 186.147C365.914 186.371 365.504 186.57 365.07 186.731C364.684 186.88 364.275 187.004 363.864 187.116C362.735 187.402 361.528 187.527 360.362 187.476C360.15 187.464 359.952 187.464 359.74 187.439C359.318 187.415 358.907 187.352 358.511 187.278C358.324 187.24 358.138 187.203 357.963 187.154C357.764 187.104 357.578 187.055 357.404 186.992C356.858 186.818 356.336 186.607 355.876 186.334C355.38 186.048 354.97 185.726 354.659 185.378C354.548 185.266 354.448 185.142 354.374 185.016C354.311 184.93 354.262 184.843 354.212 184.756C354.175 184.682 354.138 184.619 354.114 184.544C354.1 184.532 354.088 184.52 354.088 184.507C354.411 183.712 355.119 182.967 356.199 182.334L360.362 179.923L365.628 176.88C368.598 175.166 373.268 175.079 376.051 176.694C376.946 177.215 377.542 177.848 377.828 178.532C377.74 178.768 377.604 179.004 377.43 179.228ZM377.679 176.234C377.604 176.086 377.506 175.936 377.394 175.799C377.07 175.39 376.623 175.016 376.051 174.682C373.268 173.079 368.598 173.166 365.628 174.88L356.199 180.322C355.43 180.768 354.846 181.278 354.46 181.824C354.274 182.098 354.138 182.371 354.038 182.644C353.952 182.943 353.902 183.228 353.902 183.527V183.887C353.902 184.395 353.89 185.254 353.89 185.514C353.89 186.558 354.535 187.576 355.876 188.346C357.107 189.055 358.71 189.427 360.362 189.478C362.46 189.551 364.647 189.104 366.299 188.147L375.716 182.719C377.268 181.824 378.026 180.656 378.014 179.526C378.014 179.203 378.039 177.862 378.039 177.514C378.039 177.079 377.927 176.656 377.679 176.234Z" fill="black"/>
</g>
</g>
<mask id="mask18_2_1564" style="mask-type:luminance" maskUnits="userSpaceOnUse" x="353" y="173" width="26" height="12">
<path d="M353.876 173.535H378.038V184.507H353.876V173.535Z" fill="white"/>
</mask>
<g mask="url(#mask18_2_1564)">
<g opacity="0.699997">
<path d="M378.039 177.514C378.039 177.848 377.977 178.198 377.829 178.532C377.542 177.848 376.946 177.215 376.051 176.694C373.269 175.079 368.598 175.166 365.629 176.88L360.362 179.924L356.199 182.334C355.119 182.967 354.411 183.712 354.089 184.508C354.002 184.31 353.939 184.098 353.901 183.887V183.824C353.841 183.439 353.89 183.042 354.038 182.644C354.125 182.359 354.274 182.086 354.461 181.824C354.845 181.278 355.43 180.768 356.199 180.322L365.629 174.88C368.598 173.166 373.269 173.079 376.051 174.682C376.623 175.016 377.07 175.39 377.394 175.799C377.506 175.936 377.605 176.086 377.678 176.235C377.927 176.656 378.039 177.079 378.039 177.514Z" fill="#27DEBF"/>
</g>
</g>
<mask id="mask19_2_1564" style="mask-type:luminance" maskUnits="userSpaceOnUse" x="353" y="173" width="26" height="12">
<path d="M353.876 173.535H378.038V184.507H353.876V173.535Z" fill="white"/>
</mask>
<g mask="url(#mask19_2_1564)">
<g opacity="0.699997">
<path d="M378.039 177.514C378.039 177.848 377.977 178.198 377.829 178.532C377.542 177.848 376.946 177.215 376.051 176.694C373.269 175.079 368.598 175.166 365.629 176.88L360.362 179.924L356.199 182.334C355.119 182.967 354.411 183.712 354.089 184.508C354.002 184.31 353.939 184.098 353.901 183.887V183.824C353.841 183.439 353.89 183.042 354.038 182.644C354.125 182.359 354.274 182.086 354.461 181.824C354.845 181.278 355.43 180.768 356.199 180.322L365.629 174.88C368.598 173.166 373.269 173.079 376.051 174.682C376.623 175.016 377.07 175.39 377.394 175.799C377.506 175.936 377.605 176.086 377.678 176.235C377.927 176.656 378.039 177.079 378.039 177.514Z" fill="#27DEBF"/>
</g>
</g>
<path d="M89.7123 73.5143L79.8603 67.8263C78.8723 67.2556 77.2697 67.2556 76.2817 67.8263L66.4323 73.5143C65.947 73.7943 65.6857 74.1569 65.6897 74.5236C65.691 74.6329 65.691 75.2916 65.6897 75.4009C65.6857 75.7676 65.947 76.1303 66.4323 76.4116L76.283 82.0983C77.271 82.6689 78.8737 82.6689 79.8617 82.0983L89.7123 76.4116C90.1883 76.1369 90.4483 75.7756 90.4536 75.4169C90.455 75.2996 90.4536 74.6209 90.4536 74.5089C90.4536 74.1449 90.1937 73.7916 89.7123 73.5143Z" fill="#263238"/>
<path d="M66.4323 75.58L76.283 81.268C77.271 81.8387 78.8736 81.8387 79.8616 81.268L89.7123 75.58C90.7003 75.0107 90.7003 74.0853 89.7123 73.5147L79.8603 67.8267C78.8723 67.256 77.2696 67.256 76.2816 67.8267L66.4323 73.5133C65.443 74.084 65.443 75.0093 66.4323 75.58Z" fill="#37474F"/>
<path d="M68.802 74.2207L77.802 69.0207C78.198 68.7913 78.838 68.7913 79.234 69.0193L79.7247 69.3033C80.1207 69.53 80.1207 69.9007 79.7247 70.1287L70.722 75.33C70.3274 75.558 69.686 75.558 69.2914 75.33L68.802 75.0473C68.4074 74.8193 68.4074 74.4487 68.802 74.2207Z" fill="#27DEBF"/>
<path d="M72.6042 76.5924L81.6042 71.3924C81.9988 71.1644 82.6402 71.1631 83.0362 71.3924L83.5268 71.6751C83.9228 71.9031 83.9228 72.2724 83.5268 72.5017L74.5242 77.7017C74.1295 77.9297 73.4882 77.9297 73.0922 77.7017L72.6042 77.4191C72.2095 77.1911 72.2095 76.8204 72.6042 76.5924Z" fill="#27DEBF"/>
<path d="M76.4056 78.9648L85.4056 73.7648C85.8016 73.5355 86.443 73.5355 86.8376 73.7635L87.3283 74.0475C87.7243 74.2741 87.7243 74.6448 87.3296 74.8728L78.3256 80.0741C77.931 80.3008 77.2896 80.3021 76.895 80.0741L76.4056 79.7915C76.011 79.5635 76.011 79.1928 76.4056 78.9648Z" fill="#27DEBF"/>
<path d="M40.5014 78.8573L40.4814 78.8453C39.7401 78.4213 38.8001 78.356 37.7574 78.632C37.2494 78.768 36.7241 78.9586 36.1721 79.2773L30.0547 82.8066L39.3561 88.176L45.4654 84.6493C47.1494 83.676 48.6734 83.584 49.7787 84.2186L40.5014 78.8573Z" fill="#27DEBF"/>
<mask id="mask20_2_1564" style="mask-type:luminance" maskUnits="userSpaceOnUse" x="30" y="78" width="20" height="11">
<path d="M30.055 78.4659H49.7789V88.1765H30.055V78.4659Z" fill="white"/>
</mask>
<g mask="url(#mask20_2_1564)">
<g opacity="0.5">
<path d="M40.5014 78.8573L40.4814 78.8453C39.7401 78.4213 38.8001 78.356 37.7574 78.632C37.2494 78.768 36.7241 78.9586 36.1721 79.2773L30.0547 82.8066L39.3561 88.176L45.4654 84.6493C47.1494 83.676 48.6734 83.584 49.7787 84.2186L40.5014 78.8573Z" fill="white"/>
</g>
</g>
<path d="M66.722 75.7498L50.9167 84.8752L50.6554 85.0258C51.2274 85.7698 51.5754 86.8218 51.5754 88.1765C51.5754 90.9272 53.0434 92.4378 55.1647 92.3765C56.0474 92.3512 57.03 92.0818 58.0874 91.4712L76.0154 81.1205L66.722 75.7498Z" fill="#27DEBF"/>
<mask id="mask21_2_1564" style="mask-type:luminance" maskUnits="userSpaceOnUse" x="50" y="75" width="27" height="18">
<path d="M50.655 75.7499H76.0143V92.3779H50.655V75.7499Z" fill="white"/>
</mask>
<g mask="url(#mask21_2_1564)">
<g opacity="0.5">
<path d="M66.722 75.7498L50.9167 84.8752L50.6554 85.0258C51.2274 85.7698 51.5754 86.8218 51.5754 88.1765C51.5754 90.9272 53.0434 92.4378 55.1647 92.3765C56.0474 92.3512 57.03 92.0818 58.0874 91.4712L76.0154 81.1205L66.722 75.7498Z" fill="white"/>
</g>
</g>
<path d="M30.0547 82.8072V83.6272L39.3561 88.9965V88.1765L30.0547 82.8072Z" fill="#27DEBF"/>
<mask id="mask22_2_1564" style="mask-type:luminance" maskUnits="userSpaceOnUse" x="30" y="82" width="10" height="7">
<path d="M30.055 82.8072H39.3553V88.9965H30.055V82.8072Z" fill="white"/>
</mask>
<g mask="url(#mask22_2_1564)">
<g opacity="0.149994">
<path d="M30.0547 82.8072V83.6272L39.3561 88.9965V88.1765L30.0547 82.8072Z" fill="black"/>
</g>
</g>
<path d="M76.0143 81.1223V81.9343L58.445 92.0876C57.2423 92.7796 56.085 93.1249 55.0316 93.1249C54.2943 93.1249 53.6023 92.9449 53.0156 92.6143L52.9556 92.5836C51.6023 91.7716 50.865 90.2223 50.865 88.1769C50.865 86.5516 50.353 85.3636 49.4356 84.8383C48.5036 84.2956 47.225 84.4463 45.8116 85.2583L43.0436 86.8529L39.7036 88.7929L39.3583 89.0036V88.1769C39.3583 88.1769 40.5463 87.4849 42.337 86.4476C43.2543 85.9356 44.321 85.3036 45.465 84.6423C48.8343 82.7023 51.5716 84.2809 51.5716 88.1769C51.5716 92.0729 54.489 93.5463 58.085 91.4703L76.0143 81.1223Z" fill="#27DEBF"/>
<path d="M52.9558 92.5839L43.0438 86.8532L45.8118 85.2585C47.2251 84.4465 48.5038 84.2959 49.4358 84.8372C50.3531 85.3639 50.8651 86.5519 50.8651 88.1772C50.8651 90.2225 51.6025 91.7719 52.9558 92.5839Z" fill="#27DEBF"/>
<mask id="mask23_2_1564" style="mask-type:luminance" maskUnits="userSpaceOnUse" x="43" y="84" width="10" height="9">
<path d="M43.0436 84.5179H52.9556V92.5845H43.0436V84.5179Z" fill="white"/>
</mask>
<g mask="url(#mask23_2_1564)">
<g opacity="0.300003">
<path d="M52.9558 92.5839L43.0438 86.8532L45.8118 85.2585C47.2251 84.4465 48.5038 84.2959 49.4358 84.8372C50.3531 85.3639 50.8651 86.5519 50.8651 88.1772C50.8651 90.2225 51.6024 91.7719 52.9558 92.5839Z" fill="black"/>
</g>
</g>
<path d="M42.302 89.8131L27.1727 81.0824C26.1847 80.5117 24.582 80.5117 23.594 81.0824L18.7167 83.8957C18.23 84.1757 17.97 84.5397 17.974 84.9064C17.9754 85.0144 17.9754 85.6744 17.974 85.7824C17.97 86.1491 18.23 86.5131 18.7167 86.7931L33.8434 95.5237C34.8314 96.0944 36.434 96.0944 37.422 95.5237L42.302 92.7104C42.778 92.4357 43.038 92.0744 43.0434 91.7157C43.0447 91.5984 43.0434 90.9197 43.0434 90.8077C43.0434 90.4451 42.7834 90.0904 42.302 89.8131Z" fill="#263238"/>
<path d="M18.7162 85.9621L33.8442 94.6928C34.8322 95.2635 36.4348 95.2635 37.4228 94.6928L42.3015 91.8795C43.2908 91.3088 43.2908 90.3835 42.3015 89.8128L27.1735 81.0821C26.1855 80.5115 24.5828 80.5115 23.5948 81.0821L18.7162 83.8955C17.7282 84.4661 17.7282 85.3915 18.7162 85.9621Z" fill="#37474F"/>
<path d="M20.4303 84.3991L24.4596 82.0724C24.8543 81.8444 25.4956 81.8444 25.8916 82.0724L26.3823 82.3551C26.7783 82.5831 26.7783 82.9537 26.3823 83.1817L22.3503 85.5084C21.9556 85.7364 21.3143 85.7364 20.9196 85.5084L20.4303 85.2257C20.0356 84.9977 20.0356 84.6271 20.4303 84.3991Z" fill="#27DEBF"/>
<path d="M23.9824 86.4511L28.0118 84.1244C28.4064 83.8964 29.0478 83.8951 29.4438 84.1244L29.9344 84.4071C30.3304 84.6351 30.3304 85.0057 29.9344 85.2337L25.9024 87.5604C25.5078 87.7871 24.8664 87.7884 24.4718 87.5604L23.9824 87.2777C23.5878 87.0497 23.5878 86.6791 23.9824 86.4511Z" fill="#27DEBF"/>
<path d="M27.5346 88.5025L31.5639 86.1759C31.9599 85.9479 32.5999 85.9479 32.9959 86.1759L33.4866 86.4585C33.8826 86.6865 33.8826 87.0572 33.4866 87.2852L29.4546 89.6119C29.0599 89.8399 28.4186 89.8399 28.0239 89.6119L27.5346 89.3292C27.1399 89.1012 27.1399 88.7305 27.5346 88.5025Z" fill="#27DEBF"/>
<path d="M31.0866 90.554L35.1159 88.2273C35.5119 87.9993 36.1519 87.9993 36.5479 88.2273L37.0386 88.51C37.4346 88.738 37.4346 89.1087 37.0386 89.3367L33.0066 91.6633C32.6119 91.8913 31.9706 91.8913 31.5759 91.6633L31.0866 91.3807C30.6919 91.1527 30.6919 90.782 31.0866 90.554Z" fill="#27DEBF"/>
<path d="M34.6394 92.606L38.6674 90.2793C39.0634 90.0513 39.7047 90.05 40.1007 90.2793L40.5914 90.562C40.986 90.79 40.986 91.1607 40.5914 91.3887L36.5594 93.7153C36.1647 93.942 35.5234 93.9433 35.1274 93.7153L34.6394 93.4327C34.2434 93.2047 34.2434 92.834 34.6394 92.606Z" fill="#27DEBF"/>
<path d="M147.753 225.683C153.735 222.23 158.585 225.03 158.585 231.936C158.585 238.846 153.735 247.244 147.753 250.699C141.77 254.154 136.921 251.352 136.921 244.444C136.921 237.538 141.77 229.138 147.753 225.683Z" fill="#E0E0E0"/>
<path d="M34.175 144.27L34.1617 144.294C31.015 142.094 26.479 142.173 21.4177 145.095C11.9177 150.579 4.2177 163.918 4.2177 174.887C4.2177 180.947 6.57503 185.003 10.2817 186.507L10.2777 186.515C18.1617 190.937 27.8844 186.667 27.8844 186.667L41.671 159.255C41.671 151.927 38.7817 147.038 34.175 144.27Z" fill="#1E1E1E"/>
<mask id="mask24_2_1564" style="mask-type:luminance" maskUnits="userSpaceOnUse" x="4" y="164" width="29" height="25">
<path d="M4.21716 164.648H32.34V188.523H4.21716V164.648Z" fill="white"/>
</mask>
<g mask="url(#mask24_2_1564)">
<g opacity="0.100006">
<path d="M24.151 173.081C12.407 173.496 6.2217 164.745 6.1497 164.648C4.9217 168.091 4.2177 171.595 4.2177 174.887C4.2177 180.948 6.57503 185.004 10.2817 186.507L10.2777 186.515C16.8777 190.216 24.743 187.835 27.1377 186.959C27.3804 186.804 27.627 186.689 27.8844 186.668L32.3404 177.809L24.151 173.081Z" fill="black"/>
</g>
</g>
<path d="M182.057 248.187C182.057 248.187 158.006 226.413 155.469 224.957C152.957 223.516 43.8926 160.539 41.678 159.26C41.6753 159.259 41.6713 159.256 41.6713 159.256C41.654 159.245 41.626 159.229 41.626 159.229L41.6233 159.233C39.6673 158.132 36.9806 158.304 34.0153 160.016C28.0326 163.471 23.1833 171.871 23.1833 178.779C23.1833 182.225 24.3913 184.649 26.346 185.784L26.3446 185.785L26.3553 185.791C26.826 186.063 135.422 248.779 140.109 251.465C144.805 254.159 173.403 262.828 173.403 262.828C174.482 263.384 175.937 263.273 177.539 262.348C180.867 260.427 183.566 255.753 183.566 251.911C183.566 250.148 182.993 248.872 182.057 248.187Z" fill="#279CDE"/>
<mask id="mask25_2_1564" style="mask-type:luminance" maskUnits="userSpaceOnUse" x="136" y="224" width="48" height="40">
<path d="M136.921 224.205H183.565V263.166H136.921V224.205Z" fill="white"/>
</mask>
<g mask="url(#mask25_2_1564)">
<g opacity="0.100006">
<path d="M183.566 251.911C183.566 250.148 182.992 248.872 182.056 248.187C182.056 248.187 159.828 228.064 155.864 225.221C153.879 223.779 150.982 223.819 147.752 225.683C141.77 229.137 136.92 237.537 136.92 244.444C136.92 247.907 138.139 250.337 140.107 251.465L140.108 251.467C144.804 254.16 173.403 262.828 173.403 262.828C174.483 263.384 175.936 263.273 177.539 262.348C180.868 260.427 183.566 255.753 183.566 251.911Z" fill="black"/>
</g>
</g>
<path d="M85.9356 220.197C83.9702 219.068 82.7556 216.638 82.7556 213.18C82.7556 206.272 87.6049 197.872 93.5876 194.418C96.5782 192.692 99.2862 192.528 101.246 193.66C101.246 193.66 107.526 196.204 127.944 206.921C148.361 217.637 144.621 218.697 144.621 218.697L143.148 217.854C141.188 216.722 138.48 216.886 135.489 218.613C129.506 222.066 124.657 230.466 124.657 237.374C124.657 240.829 125.869 243.256 127.829 244.388L129.797 245.518C129.797 245.518 127.133 246.378 113.073 238.19C99.0129 230.002 85.9356 220.197 85.9356 220.197Z" fill="#1E1E1E"/>
<mask id="mask26_2_1564" style="mask-type:luminance" maskUnits="userSpaceOnUse" x="171" y="247" width="13" height="17">
<path d="M171.513 247.609H183.565V263.171H171.513V247.609Z" fill="white"/>
</mask>
<g mask="url(#mask26_2_1564)">
<g opacity="0.149994">
<path d="M171.514 258.869C171.514 255.026 174.212 250.353 177.54 248.432C180.868 246.51 183.566 248.068 183.566 251.91C183.566 255.754 180.868 260.426 177.54 262.348C174.212 264.269 171.514 262.712 171.514 258.869Z" fill="black"/>
</g>
</g>
<path d="M246.871 294.988C246.871 295.228 246.711 295.522 246.511 295.628C246.418 295.682 246.351 295.682 246.284 295.668V295.682C245.751 295.495 237.631 292.508 235.098 291.442C234.751 291.308 234.511 291.202 234.404 291.135L176.298 257.588C175.964 257.402 175.751 257.002 175.751 256.428C175.751 255.855 175.951 255.215 176.271 254.655C176.604 254.095 177.044 253.615 177.538 253.322C178.031 253.042 178.484 253.015 178.804 253.202L236.938 286.762C237.271 286.962 237.818 287.348 238.484 287.868C241.338 290.042 246.418 294.388 246.804 294.775L246.791 294.788C246.844 294.828 246.871 294.895 246.871 294.988Z" fill="#455A64"/>
<path d="M246.871 294.988C246.871 295.228 246.711 295.522 246.511 295.628C246.418 295.682 246.351 295.682 246.284 295.668V295.682C245.751 295.495 237.631 292.508 235.098 291.442C235.844 290.735 237.458 291.122 239.018 291.815C240.751 292.602 245.964 295.402 246.244 295.055C246.524 294.708 242.818 292.508 240.604 290.895C238.391 289.282 237.871 287.975 238.484 287.868C241.338 290.042 246.418 294.388 246.804 294.775L246.791 294.788C246.844 294.828 246.871 294.895 246.871 294.988Z" fill="#37474F"/>
<mask id="mask27_2_1564" style="mask-type:luminance" maskUnits="userSpaceOnUse" x="176" y="253" width="68" height="41">
<path d="M176.921 253.937H243.405V293.43H176.921V253.937Z" fill="white"/>
</mask>
<g mask="url(#mask27_2_1564)">
<g opacity="0.199997">
<path d="M178.172 253.937C178.172 253.937 236.096 287.225 236.949 287.868C237.805 288.511 237.719 289.675 241.684 292.193C245.404 294.556 242.533 293.285 238.38 290.469C237.423 289.821 237.132 288.475 236.061 287.868C231.224 285.123 176.921 255.247 176.921 255.247C176.921 255.247 177.485 254.104 178.172 253.937Z" fill="white"/>
</g>
</g>
</svg>
